<?xml version="1.0" standalone="no"?>
<!DOCTYPE svg PUBLIC "-//W3C//DTD SVG 1.1//EN" "http://www.w3.org/Graphics/SVG/1.1/DTD/svg11.dtd" >
<svg xmlns="http://www.w3.org/2000/svg">
<metadata>Generated by IcoMoon</metadata>
<defs>
<font id="elixir-icons" horiz-adv-x="1024">
<font-face units-per-em="1024" ascent="960" descent="-64" />
<missing-glyph horiz-adv-x="1024" />
<glyph unicode="&#x20;" horiz-adv-x="512" d="" />
<glyph unicode="&#xe900;" glyph-name="insert_chart-24px" d="M810.667 832h-597.333c-46.933 0-85.333-38.4-85.333-85.333v-597.333c0-46.933 38.4-85.333 85.333-85.333h597.333c46.933 0 85.333 38.4 85.333 85.333v597.333c0 46.933-38.4 85.333-85.333 85.333zM810.667 149.333h-597.333v597.333h597.333v-597.333zM298.667 533.333h85.333v-298.667h-85.333zM469.333 661.333h85.333v-426.667h-85.333zM640 405.333h85.333v-170.667h-85.333z" />
<glyph unicode="&#xe901;" glyph-name="standing_orders-24px" d="M768 874.667h-682.667c-46.933 0-85.333-38.4-85.333-85.333v-512c0-46.933 38.4-85.333 85.333-85.333h682.667c46.933 0 85.333 38.4 85.333 85.333v512c0 46.933-38.4 85.333-85.333 85.333zM768 277.333h-682.667v256h682.667v-256zM768 704h-682.667v85.333h682.667v-85.333zM938.667 618.667v-512h-678.4v-85.333h678.4c46.933 0 85.333 38.4 85.333 85.333v512h-85.333z" />
<glyph unicode="&#xe902;" glyph-name="https-24px" d="M768 618.667h-42.667v85.333c0 117.76-95.573 213.333-213.333 213.333s-213.333-95.573-213.333-213.333v-85.333h-42.667c-46.933 0-85.333-38.4-85.333-85.333v-426.667c0-46.933 38.4-85.333 85.333-85.333h512c46.933 0 85.333 38.4 85.333 85.333v426.667c0 46.933-38.4 85.333-85.333 85.333zM384 704c0 70.827 57.173 128 128 128s128-57.173 128-128v-85.333h-256v85.333zM768 106.667h-512v426.667h512v-426.667zM512 234.667c46.933 0 85.333 38.4 85.333 85.333s-38.4 85.333-85.333 85.333-85.333-38.4-85.333-85.333 38.4-85.333 85.333-85.333z" />
<glyph unicode="&#xe903;" glyph-name="table_chart-24px-1" d="M853.333 832h-640c-46.933 0-85.333-38.4-85.333-85.333v-597.333c0-46.933 38.4-85.333 85.333-85.333h640c46.933 0 85.333 38.4 85.333 85.333v597.333c0 46.933-38.4 85.333-85.333 85.333zM853.333 746.667v-128h-640v128h640zM640 149.333h-213.333v384h213.333v-384zM213.333 533.333h128v-384h-128v384zM725.333 149.333v384h128v-384h-128z" />
<glyph unicode="&#xe904;" glyph-name="pie_chart-24px-2" d="M512 874.667c-235.52 0-426.667-191.147-426.667-426.667s191.147-426.667 426.667-426.667 426.667 191.147 426.667 426.667-191.147 426.667-426.667 426.667zM850.347 490.667h-295.68v295.68c154.027-19.2 276.48-141.653 295.68-295.68zM170.667 448c0 173.653 130.56 317.44 298.667 338.347v-676.693c-168.107 20.907-298.667 164.693-298.667 338.347zM554.667 109.653v295.68h295.68c-19.2-154.027-141.653-276.48-295.68-295.68z" />
<glyph unicode="&#xe905;" d="M506.027 128h-439.467v4.267l76.8 76.8c4.267 4.267 8.533 12.8 8.533 21.333v260.267c0 128 89.6 238.933 217.6 268.8 12.8 4.267 21.333 12.8 21.333 29.867v51.2c0 21.333 17.067 34.133 34.133 34.133 0 0 0 0 0 0v0c8.533 0 17.067-4.267 25.6-8.533s8.533-17.067 8.533-25.6v-51.2c0-12.8 8.533-25.6 21.333-29.867 123.733-25.6 217.6-140.8 217.6-268.8v-4.267c17.067 4.267 38.4 8.533 55.467 12.8-4.267 145.067-102.4 273.067-238.933 311.467v29.867c0 25.6-8.533 46.933-25.6 68.267-17.067 17.067-42.667 25.6-68.267 25.6v0c0 0 0 0 0 0-51.2 0-93.867-42.667-93.867-93.867v-29.867c-140.8-42.667-238.933-170.667-238.933-320v-247.467l-76.8-76.8c-4.267-4.267-8.533-12.8-8.533-21.333v-42.667c0-17.067 12.8-29.867 29.867-29.867h277.333c8.533-55.467 55.467-102.4 115.2-102.4 55.467 0 98.133 38.4 110.933 85.333-12.8 21.333-21.333 46.933-29.867 72.533zM429.227 25.6c-21.333 0-38.4 12.8-51.2 29.867h98.133c-8.533-17.067-29.867-29.867-46.933-29.867z" />
<glyph unicode="&#xe906;" d="M1013.76 204.8c0-127.246-103.154-230.4-230.4-230.4s-230.4 103.154-230.4 230.4c0 127.246 103.154 230.4 230.4 230.4s230.4-103.154 230.4-230.4z" />
<glyph unicode="&#xe907;" glyph-name="more-24px" d="M85.333 832h640c29.867 0 51.2-12.8 68.267-38.4l230.4-345.6-230.4-345.6c-17.067-21.333-42.667-38.4-72.533-38.4h-635.733c-46.933 0-85.333 38.4-85.333 85.333v597.333c0 46.933 38.4 85.333 85.333 85.333zM85.333 149.333h635.733l200.533 298.667-200.533 298.667h-635.733v-597.333zM704 448c0-35.346-28.654-64-64-64s-64 28.654-64 64c0 35.346 28.654 64 64 64s64-28.654 64-64zM490.667 448c0-35.346-28.654-64-64-64s-64 28.654-64 64c0 35.346 28.654 64 64 64s64-28.654 64-64zM277.333 448c0-35.346-28.654-64-64-64s-64 28.654-64 64c0 35.346 28.654 64 64 64s64-28.654 64-64z" />
<glyph unicode="&#xe908;" glyph-name="approve-24px" d="M85.333 832h640c29.867 0 51.2-12.8 68.267-38.4l230.4-345.6-230.4-345.6c-17.067-21.333-42.667-38.4-72.533-38.4h-635.733c-46.933 0-85.333 38.4-85.333 85.333v597.333c0 46.933 38.4 85.333 85.333 85.333zM85.333 149.333h635.733l200.533 298.667-200.533 298.667h-635.733v-597.333zM610.133 631.467l-264.533-264.533-102.4 106.667-51.2-51.2 153.6-157.867 315.733 315.733z" />
<glyph unicode="&#xe909;" glyph-name="back-24px" d="M1002.667 448l-247.467-247.467-21.333 21.333 209.067 209.067h-921.6v29.867h925.867l-209.067 209.067 21.333 21.333 243.2-243.2z" />
<glyph unicode="&#xe90a;" glyph-name="local_offer-24px-1" d="M913.493 465.92l-384 384c-15.36 15.36-36.693 24.747-60.16 24.747h-298.667c-46.933 0-85.333-38.4-85.333-85.333v-298.667c0-23.467 9.387-44.8 25.173-60.587l384-384c15.36-15.36 36.693-24.747 60.16-24.747s44.8 9.387 60.16 25.173l298.667 298.667c15.787 15.36 25.173 36.693 25.173 60.16s-9.813 45.227-25.173 60.587zM554.667 106.24l-384 384.427v298.667h298.667v0.427l384-384-298.667-299.52zM341.333 682.667c0-35.346-28.654-64-64-64s-64 28.654-64 64c0 35.346 28.654 64 64 64s64-28.654 64-64z" />
<glyph unicode="&#xe90b;" glyph-name="account_box-24px-1" d="M810.667 746.667v-597.333h-597.333v597.333h597.333zM810.667 832h-597.333c-47.36 0-85.333-38.4-85.333-85.333v-597.333c0-46.933 37.973-85.333 85.333-85.333h597.333c46.933 0 85.333 38.4 85.333 85.333v597.333c0 46.933-38.4 85.333-85.333 85.333zM512 448c-70.4 0-128 57.6-128 128s57.6 128 128 128 128-57.6 128-128-57.6-128-128-128zM512 618.667c-23.467 0-42.667-19.2-42.667-42.667s19.2-42.667 42.667-42.667 42.667 19.2 42.667 42.667-19.2 42.667-42.667 42.667zM768 192h-512v65.28c0 106.667 169.387 152.747 256 152.747s256-46.080 256-152.747v-65.28zM354.56 277.333h314.88c-29.44 23.893-101.547 47.787-157.44 47.787s-128.427-23.893-157.44-47.787z" />
<glyph unicode="&#xe90c;" glyph-name="categories-24px" d="M917.333 674.133c0 4.267 0 4.267-4.267 8.533 0 0 0 4.267-4.267 4.267 0 0-4.267 4.267-4.267 4.267s-4.267 4.267-4.267 4.267l-384 213.333c-8.533 4.267-17.067 4.267-21.333 0l-384-217.6c0 0 0 0-4.267-4.267 0 0 0-4.267-4.267-4.267 0 0 0-4.267-4.267-4.267 0-4.267 0-4.267 0-4.267s0-4.267 0-4.267c0 0 0 0 0 0v-430.933c0-8.533 4.267-17.067 12.8-21.333l379.733-226.133c4.267-4.267 8.533-4.267 12.8-4.267s8.533 0 12.8 4.267l384 217.6c8.533 4.267 12.8 12.8 12.8 21.333l4.267 443.733c0-4.267 0-4.267 0 0 0-4.267 0-4.267 0 0zM840.533 610.133v-349.867l-290.133-166.4 4.267 349.867 285.867 166.4zM789.333 669.867l-277.333-157.867-89.6 51.2 268.8 157.867 98.133-51.2zM238.933 669.867l273.067 153.6 102.4-55.467-268.8-157.867-106.667 59.733zM473.6 443.733l-4.267-345.6-290.133 170.667v341.333l294.4-166.4z" />
<glyph unicode="&#xe90d;" glyph-name="notifications-24px" d="M512 21.333c46.933 0 85.333 38.4 85.333 85.333h-170.667c0-46.933 38.4-85.333 85.333-85.333zM768 277.333v213.333c0 130.987-69.547 240.64-192 269.653v29.013c0 35.413-28.587 64-64 64s-64-28.587-64-64v-29.013c-122.027-29.013-192-138.24-192-269.653v-213.333l-85.333-85.333v-42.667h682.667v42.667l-85.333 85.333zM682.667 234.667h-341.333v256c0 105.813 64.427 192 170.667 192s170.667-86.187 170.667-192v-256z" />
<glyph unicode="&#xe90e;" glyph-name="cancel_presentation-24px" d="M896 832h-768c-46.933 0-85.333-38.4-85.333-85.333v-597.333c0-46.933 38.4-85.333 85.333-85.333h768c46.933 0 85.333 38.4 85.333 85.333v597.333c0 46.933-38.4 85.333-85.333 85.333zM896 149.333h-768v597.333h768v-597.333zM401.493 279.467l110.507 110.507 110.507-110.507 60.16 60.16-110.507 110.507 110.507 110.507-60.16 60.16-110.507-110.507-110.507 110.507-60.16-60.16 110.507-110.507-110.507-110.507z" />
<glyph unicode="&#xe90f;" glyph-name="centarix-icons-18" d="M512.217 916.555c-0.129 0-0.281 0-0.433 0-258.176 0-467.469-209.293-467.469-467.469s209.293-467.469 467.469-467.469c257.718 0 466.726 208.551 467.467 466.095v0.070c0.001 0.387 0.002 0.845 0.002 1.304 0 258.024-209.046 467.222-467.012 467.469h-0.024zM512.217 21.587c-236.101 0-427.499 191.398-427.499 427.499s191.398 427.499 427.499 427.499c236.101 0 427.499-191.398 427.499-427.499v0c0.001-0.258 0.001-0.563 0.001-0.869 0-236.189-191.345-427.686-427.476-427.934h-0.024zM515.258 147.143l-43.445 34.756c-148.148 123.818-246.333 205.061-246.333 304.115 2.115 81.855 68.973 147.403 151.141 147.403 2.156 0 4.301-0.045 6.435-0.134l-0.305 0.010h2.607c0.155 0 0.338 0.001 0.521 0.001 50.955 0 96.972-21.137 129.763-55.122l0.051-0.054c32.842 34.038 78.86 55.176 129.814 55.176 0.183 0 0.366 0 0.549-0.001h-0.028c2.394 0.136 5.194 0.213 8.012 0.213 80.584 0 146.4-63.227 150.547-142.778l0.015-0.369v-2.607c0-99.924-98.186-181.6-246.768-304.115z" />
<glyph unicode="&#xe910;" glyph-name="add_box-24px-01" d="M810.667 832h-597.333c-47.128 0-85.333-38.205-85.333-85.333v0-597.333c0-47.128 38.205-85.333 85.333-85.333v0h597.333c47.128 0 85.333 38.205 85.333 85.333v0 597.333c0 47.128-38.205 85.333-85.333 85.333v0zM810.667 149.333h-597.333v597.333h597.333zM298.667 405.333h426.667v85.333h-426.667zM469.333 490.667h-170.667v-85.333h170.667z" />
<glyph unicode="&#xe911;" glyph-name="add_box-24px" d="M810.667 832h-597.333c-47.36 0-85.333-38.4-85.333-85.333v-597.333c0-46.933 37.973-85.333 85.333-85.333h597.333c46.933 0 85.333 38.4 85.333 85.333v597.333c0 46.933-38.4 85.333-85.333 85.333zM810.667 149.333h-597.333v597.333h597.333v-597.333zM469.333 234.667h85.333v170.667h170.667v85.333h-170.667v170.667h-85.333v-170.667h-170.667v-85.333h170.667z" />
<glyph unicode="&#xe912;" glyph-name="centarix-icons-17" d="M517.865 255.756l-318.452 318.887 65.602 65.168 252.85-252.85 241.555 241.12 65.168-65.602-306.722-306.722z" />
<glyph unicode="&#xe913;" glyph-name="arrow_drop_down-24px" d="M298.667 533.333l213.333-213.333 213.333 213.333h-426.667z" />
<glyph unicode="&#xe914;" glyph-name="zoom_in-24px-01" d="M661.333 362.667h-33.707l-11.947 11.52c41.633 48.289 66.989 111.635 66.989 180.904 0 153.403-124.357 277.76-277.76 277.76s-277.76-124.357-277.76-277.76c0-153.403 124.357-277.76 277.76-277.76 69.269 0 132.615 25.356 181.264 67.293l-0.36-0.304 11.52-11.947v-33.707l213.333-213.333 63.573 64zM405.333 362.667c-106.039 0-192 85.961-192 192s85.961 192 192 192c106.039 0 192-85.961 192-192v0c0-0.127 0-0.277 0-0.427 0-105.803-85.77-191.573-191.573-191.573-0.15 0-0.3 0-0.45 0.001h0.023z" />
<glyph unicode="&#xe915;" glyph-name="zoom_in-24px" d="M661.333 362.667h-33.707l-11.947 11.52c41.813 48.64 66.987 111.787 66.987 180.48 0 153.173-124.16 277.333-277.333 277.333s-277.333-124.16-277.333-277.333 124.16-277.333 277.333-277.333c68.693 0 131.84 25.173 180.48 66.987l11.52-11.947v-33.707l213.333-212.907 63.573 63.573-212.907 213.333zM405.333 362.667c-106.24 0-192 85.76-192 192s85.76 192 192 192 192-85.76 192-192-85.76-192-192-192zM426.667 661.333h-42.667v-85.333h-85.333v-42.667h85.333v-85.333h42.667v85.333h85.333v42.667h-85.333z" />
<glyph unicode="&#xe916;" glyph-name="notifications-24px1" d="M512 21.333c46.933 0 85.333 38.4 85.333 85.333h-170.667c0-46.933 38.4-85.333 85.333-85.333zM768 277.333v213.333c0 130.987-69.547 240.64-192 269.653v29.013c0 35.413-28.587 64-64 64s-64-28.587-64-64v-29.013c-122.027-29.013-192-138.24-192-269.653v-213.333l-85.333-85.333v-42.667h682.667v42.667l-85.333 85.333zM682.667 234.667h-341.333v256c0 105.813 64.427 192 170.667 192s170.667-86.187 170.667-192v-256z" />
<glyph unicode="&#xe917;" glyph-name="clear-24px" d="M810.667 686.507l-60.16 60.16-238.507-238.507-238.507 238.507-60.16-60.16 238.507-238.507-238.507-238.507 60.16-60.16 238.507 238.507 238.507-238.507 60.16 60.16-238.507 238.507 238.507 238.507z" />
<glyph unicode="&#xe918;" glyph-name="centarix-icons-12" d="M564.786 363.499v-296.73l-481.806 381.013 481.806 381.882v-297.164l376.234 297.164v-762.895z" />
<glyph unicode="&#xe919;" glyph-name="centarix-icons-13" d="M753.337 66.77l-482.675 381.013 482.675 381.882z" />
<glyph unicode="&#xe91a;" glyph-name="centarix-icons-14" d="M458.345 363.499v-296.73l482.675 381.013-482.675 381.882v-297.164l-375.365 297.164v-762.895z" />
<glyph unicode="&#xe91b;" glyph-name="centarix-icons-15" d="M270.663 66.77l482.675 381.013-482.675 381.882z" />
<glyph unicode="&#xe91c;" glyph-name="centarix-icons-10" d="M978.383 557.699c-5.13 15.097-17.923 26.3-33.626 29.070l-273.096 39.573-121.212 246.768c-7.632 13.158-21.653 21.866-37.707 21.866-8.57 0-16.561-2.481-23.292-6.765l0.176 0.105c-6.472-3.73-11.747-8.866-15.532-15.018l-0.108-0.188-121.646-246.768-271.966-39.535c-16.319-2.504-29.49-13.792-34.664-28.803l-0.092-0.305c-1.14-3.701-1.796-7.955-1.796-12.362 0-12.178 5.011-23.186 13.083-31.075l0.008-0.008 196.372-192.896-43.445-270.663c-0.595-2.696-0.936-5.792-0.936-8.968 0-14.002 6.624-26.457 16.91-34.402l0.101-0.075c6.903-4.83 15.474-7.718 24.72-7.718 6.807 0 13.248 1.565 18.983 4.356l-0.258-0.113 243.292 130.335 243.727-130.335c5.775-2.473 12.495-3.91 19.55-3.91v0c0.627-0.037 1.36-0.058 2.098-0.058 8.53 0 16.408 2.794 22.768 7.516l-0.103-0.073c10.823 7.997 17.764 20.709 17.764 35.042 0 2.973-0.299 5.877-0.868 8.682l0.047-0.279-46.921 270.663 197.241 192.462c7.746 7.842 12.53 18.625 12.53 30.525 0 4.773-0.77 9.366-2.192 13.662l0.088-0.307z" />
<glyph unicode="&#xe91d;" glyph-name="centarix-icons-11" d="M775.494 1.602c-0.052 0-0.113 0-0.175 0-7.232 0-14.052 1.767-20.050 4.893l0.24-0.114-243.292 128.163-243.727-130.335c-5.655-2.885-12.333-4.575-19.407-4.575-15.913 0-29.828 8.556-37.396 21.318l-0.11 0.201c-3.359 6.022-5.337 13.212-5.337 20.863 0 2.451 0.203 4.855 0.593 7.196l-0.035-0.254 46.486 271.097-196.806 194.634c-7.305 7.755-11.793 18.233-11.793 29.76s4.489 22.005 11.814 29.782l-0.020-0.022c6.455 6.591 14.981 11.132 24.524 12.569l0.239 0.030 272.401 39.535 120.343 246.768c7.555 13.464 21.74 22.412 38.014 22.412s30.459-8.949 37.902-22.194l0.113-0.218 122.081-246.333 271.966-39.535c20.928-3.37 36.721-21.301 36.721-42.922 0-1.562-0.082-3.104-0.243-4.623l0.016 0.189c-1.467-9.782-6.008-18.308-12.592-24.756l-197.248-192.469 46.486-271.097c0.159-1.396 0.25-3.014 0.25-4.654 0-21.163-15.132-38.793-35.168-42.657l-0.273-0.044c-1.241-0.202-2.67-0.318-4.127-0.318s-2.887 0.116-4.281 0.338l0.154-0.020zM512.217 224.91c7.145-0.044 13.868-1.806 19.791-4.893l-0.24 0.114 187.248-98.62-35.625 208.536c-0.368 2.124-0.578 4.57-0.578 7.065 0 11.789 4.695 22.48 12.318 30.308l-0.009-0.010 151.623 147.713-209.405 30.412c-13.981 2.399-25.502 11.198-31.601 23.213l-0.114 0.247-93.841 189.42-93.407-189.42c-6.294-12.363-17.995-21.195-31.901-23.427l-0.248-0.033-209.405-30.412 151.623-147.713c7.718-7.44 12.511-17.868 12.511-29.416 0-2.812-0.284-5.557-0.825-8.209l0.045 0.263-36.059-208.536 187.683 99.924c5.094 2.268 11.037 3.588 17.289 3.588 1.101 0 2.193-0.041 3.274-0.122l-0.144 0.009z" />
<glyph unicode="&#xe91e;" glyph-name="centarix-icons-09" d="M985.334 446.479c-8.255 10.861-213.75 264.58-473.117 264.58s-464.862-253.719-473.551-264.58l-8.255-10.427 8.255-10.427c8.689-10.861 213.315-264.58 473.551-264.58s464.862 253.719 473.117 264.58l8.255 10.427zM950.578 436.053c-39.535-43.445-223.308-241.989-438.361-241.989s-399.26 196.806-438.795 241.989c39.535 46.052 223.308 241.989 438.795 241.989s400.129-195.937 438.361-241.989zM512.217 586.373c-83.019 0-150.32-67.301-150.32-150.32s67.301-150.32 150.32-150.32c83.019 0 150.32 67.301 150.32 150.32v0c0 83.019-67.301 150.32-150.32 150.32v0zM629.084 436.053c0.001-0.129 0.001-0.281 0.001-0.434 0-64.784-52.518-117.302-117.302-117.302s-117.302 52.518-117.302 117.302c0 64.784 52.518 117.302 117.302 117.302 0.152 0 0.305 0 0.457-0.001h-0.024c64.445-0.246 116.621-52.422 116.867-116.844v-0.024z" />
<glyph unicode="&#xe91f;" glyph-name="centarix-icons-07" d="M512.217 674.566l162.485-164.222-14.771-13.902-138.59 139.024v-611.272h-19.985v611.272l-137.286-138.155-16.509 13.902zM530.030 16.808h-34.756v600.411l-130.335-130.335-25.633 24.329 173.78 173.78 173.78-173.78-25.633-24.329-130.335 130.335zM510.045 31.579h5.213v621.699l144.672-146.41 4.345 3.91-151.623 153.361-152.492-152.492 4.345-4.345 145.975 145.975zM828.063 247.501h-186.814v29.543h156.837v572.171h-572.171v-572.171h173.78v-29.543h-203.323v631.691h631.257z" />
<glyph unicode="&#xe920;" glyph-name="centarix-icons-08" d="M511.348 221.434l-163.788 163.788 14.771 14.337 137.286-139.024v612.575h21.723v-612.575l138.59 138.155 14.771-14.337zM493.97 879.192h34.756v-600.845l130.335 130.335 25.633-24.329-173.78-173.78-173.78 173.78 26.067 24.329 130.335-130.335zM513.955 863.986h-4.779v-621.699l-145.106 146.844-4.345-3.91 151.623-153.361 152.492 152.492-3.91 3.91-145.975-145.975zM196.372 648.499h186.814v-29.977h-157.271v-570.868h572.171v570.868h-173.78v29.977h204.192v-631.691h-632.126z" />
<glyph unicode="&#xe921;" glyph-name="centarix-icons-05" d="M912.346 672.828s0 0 0 0c0.184 0.717 0.29 1.541 0.29 2.389s-0.106 1.672-0.305 2.459l0.015-0.069c-0.646 1.081-1.525 1.961-2.573 2.588l-0.034 0.019-388.399 222.004c-1.831 1.238-4.087 1.977-6.517 1.977s-4.686-0.738-6.558-2.003l0.042 0.026-387.53-217.225s0 0 0 0v0 0 0-439.23c0.102-4.901 2.647-9.185 6.463-11.697l0.054-0.033 386.661-231.128c1.814-1.305 4.066-2.11 6.502-2.172h0.015c2.596 0.053 4.994 0.857 6.998 2.202l-0.047-0.030 391.006 221.57c4.167 2.231 6.953 6.554 6.953 11.528 0 0.071-0.001 0.142-0.002 0.213v-0.011 436.623zM512.652 499.048l-114.695 66.905 295.426 173.78 120.343-67.774zM338.871 597.668l-130.335 74.291 300.64 169.001 123.818-69.512zM482.24 450.389l-3.041-377.538-311.067 188.552v370.586zM853.261 252.28l-316.714-180.297 3.041 378.406 313.673 181.166z" />
<glyph unicode="&#xe922;" glyph-name="camera_alt-24px" d="M853.333 789.333h-135.253l-78.080 85.333h-256l-78.080-85.333h-135.253c-46.933 0-85.333-38.4-85.333-85.333v-512c0-46.933 38.4-85.333 85.333-85.333h682.667c46.933 0 85.333 38.4 85.333 85.333v512c0 46.933-38.4 85.333-85.333 85.333zM853.333 192h-682.667v512h172.8l78.080 85.333h180.907l78.080-85.333h172.8v-512zM512 661.333c-117.76 0-213.333-95.573-213.333-213.333s95.573-213.333 213.333-213.333 213.333 95.573 213.333 213.333-95.573 213.333-213.333 213.333zM512 320c-70.4 0-128 57.6-128 128s57.6 128 128 128 128-57.6 128-128-57.6-128-128-128z" />
<glyph unicode="&#xe923;" glyph-name="credit_card-24px" d="M853.333 789.333h-682.667c-47.36 0-84.907-37.973-84.907-85.333l-0.427-512c0-47.36 37.973-85.333 85.333-85.333h682.667c47.36 0 85.333 37.973 85.333 85.333v512c0 47.36-37.973 85.333-85.333 85.333zM853.333 192h-682.667v256h682.667v-256zM853.333 618.667h-682.667v85.333h682.667v-85.333z" />
<glyph unicode="&#xe924;" glyph-name="chrome_reader_mode-24px" d="M896 789.333h-768c-46.933 0-85.333-38.4-85.333-85.333v-554.667c0-46.933 38.4-85.333 85.333-85.333h768c46.933 0 85.333 38.4 85.333 85.333v554.667c0 46.933-38.4 85.333-85.333 85.333zM128 149.333v554.667h341.333v-554.667h-341.333zM896 149.333h-341.333v554.667h341.333v-554.667zM597.333 554.667h256v-64h-256zM597.333 448h256v-64h-256zM597.333 341.333h256v-64h-256z" />
<glyph unicode="&#xe925;" glyph-name="book-24px" d="M768 874.667h-512c-46.933 0-85.333-38.4-85.333-85.333v-682.667c0-46.933 38.4-85.333 85.333-85.333h512c46.933 0 85.333 38.4 85.333 85.333v682.667c0 46.933-38.4 85.333-85.333 85.333zM384 789.333h85.333v-213.333l-42.667 32-42.667-32v213.333zM768 106.667h-512v682.667h42.667v-384l128 96 128-96v384h213.333v-682.667z" />
<glyph unicode="&#xe926;" glyph-name="history-24px" d="M554.667 832c-212.053 0-384-171.947-384-384h-128l165.973-165.973 2.987-5.973 172.373 171.947h-128c0 165.12 133.547 298.667 298.667 298.667s298.667-133.547 298.667-298.667-133.547-298.667-298.667-298.667c-82.347 0-157.013 33.707-210.773 87.893l-60.587-60.587c69.547-69.547 165.12-112.64 271.36-112.64 212.053 0 384 171.947 384 384s-171.947 384-384 384zM512 618.667v-213.333l181.333-107.52 32.853 54.613-150.187 89.173v177.067z" />
<glyph unicode="&#xe927;" glyph-name="attach_file-24px" d="M704 704v-490.667c0-94.293-76.373-170.667-170.667-170.667s-170.667 76.373-170.667 170.667v533.333c0 58.88 47.787 106.667 106.667 106.667s106.667-47.787 106.667-106.667v-448c0-23.467-19.2-42.667-42.667-42.667s-42.667 19.2-42.667 42.667v405.333h-64v-405.333c0-58.88 47.787-106.667 106.667-106.667s106.667 47.787 106.667 106.667v448c0 94.293-76.373 170.667-170.667 170.667s-170.667-76.373-170.667-170.667v-533.333c0-129.707 104.96-234.667 234.667-234.667s234.667 104.96 234.667 234.667v490.667h-64z" />
<glyph unicode="&#xe928;" glyph-name="centarix-icons-03" d="M328.445 345.687l-39.535 37.797-57.782-55.175 96.448-98.186 160.747 162.050-58.216 63.43-101.661-109.916zM331.051 604.185l-43.011 40.404-54.741-55.175 97.751-96.014 157.271 161.181-52.569 59.085-104.703-109.482zM551.318 651.54h213.75v-78.636h-213.75v78.636zM551.318 390.001h212.881v-79.070h-212.881v79.070zM110.35 876.151v-856.737h801.996v856.737zM177.256 86.32v722.926h669.923v-722.926z" />
<glyph unicode="&#xe929;" glyph-name="centarix-icons-04" d="M420.548 651.54h344.085v-78.636h-344.085v78.636zM420.983 390.001h343.216v-79.070h-343.216v79.070zM110.35 876.151v-856.737h801.996v856.737zM177.256 86.32v722.926h669.923v-722.926z" />
<glyph unicode="&#xe92a;" glyph-name="monetization_on-24px" d="M512 874.667c-235.52 0-426.667-191.147-426.667-426.667s191.147-426.667 426.667-426.667 426.667 191.147 426.667 426.667-191.147 426.667-426.667 426.667zM512 106.667c-188.16 0-341.333 153.173-341.333 341.333s153.173 341.333 341.333 341.333 341.333-153.173 341.333-341.333-153.173-341.333-341.333-341.333zM525.227 484.693c-75.52 19.2-99.84 40.107-99.84 71.253 0 35.84 33.707 61.013 89.6 61.013 58.88 0 81.067-28.16 82.773-69.973h72.96c-2.133 57.173-37.12 109.653-106.24 126.72v72.96h-99.413v-72.107c-64.427-13.653-116.053-55.467-116.053-119.893 0-76.373 63.573-114.773 156.16-136.96 83.2-19.627 99.84-49.067 99.84-79.787 0-22.613-16.64-59.307-89.6-59.307-68.267 0-95.147 30.72-98.987 69.973h-73.387c4.267-72.533 58.027-113.493 122.027-126.72v-72.533h99.84v71.253c64.853 12.373 116.053 49.493 116.48 118.187-0.427 93.867-81.067 126.293-156.16 145.92z" />
<glyph unicode="&#xe92b;" glyph-name="storefront-24px1" d="M934.4 580.693l-44.8 186.453c-9.387 38.4-42.667 64.853-81.493 64.853h-592.64c-38.4 0-72.107-26.88-81.067-64.853l-44.8-186.453c-10.24-43.52-0.853-87.893 26.453-122.88 3.413-4.693 8.107-8.107 11.947-12.373v-296.107c0-46.933 38.4-85.333 85.333-85.333h597.333c46.933 0 85.333 38.4 85.333 85.333v296.107c3.84 3.84 8.533 7.68 11.947 11.947 27.307 34.987 37.12 79.787 26.453 123.307zM806.827 747.093l44.8-186.453c4.267-17.92 0.427-35.84-10.667-49.92-5.973-7.68-18.773-20.053-40.107-20.053-26.027 0-48.64 20.907-51.627 48.64l-24.747 207.36 82.347 0.427zM554.667 746.667h83.627l23.040-192.853c2.133-16.64-2.987-33.28-14.080-45.653-9.387-11.093-23.040-17.493-40.533-17.493-28.587 0-52.053 25.173-52.053 55.893v200.107zM362.24 553.813l23.467 192.853h83.627v-200.107c0-30.72-23.467-55.893-55.040-55.893-14.507 0-27.733 6.4-37.973 17.493-10.667 12.373-15.787 29.013-14.080 45.653zM172.373 560.64l43.093 186.027h84.053l-24.747-207.36c-3.413-27.733-25.6-48.64-51.627-48.64-20.907 0-34.133 12.373-39.68 20.053-11.52 13.653-15.36 32-11.093 49.92zM213.333 149.333v257.28c3.413-0.427 6.4-1.28 9.813-1.28 37.12 0 70.827 15.36 95.573 40.533 25.6-25.6 59.733-40.533 98.56-40.533 37.12 0 70.4 15.36 95.147 39.68 25.173-24.32 59.307-39.68 97.707-39.68 35.84 0 69.973 14.933 95.573 40.533 24.747-25.173 58.453-40.533 95.573-40.533 3.413 0 6.4 0.853 9.813 1.28v-257.28h-597.76z" />
<glyph unicode="&#xe92c;" glyph-name="add_circle_outline-24px" d="M554.667 661.333h-85.333v-170.667h-170.667v-85.333h170.667v-170.667h85.333v170.667h170.667v85.333h-170.667v170.667zM512 874.667c-235.52 0-426.667-191.147-426.667-426.667s191.147-426.667 426.667-426.667 426.667 191.147 426.667 426.667-191.147 426.667-426.667 426.667zM512 106.667c-188.16 0-341.333 153.173-341.333 341.333s153.173 341.333 341.333 341.333 341.333-153.173 341.333-341.333-153.173-341.333-341.333-341.333z" />
<glyph unicode="&#xe92d;" glyph-name="add_circle-24px" d="M512 874.667c-235.52 0-426.667-191.147-426.667-426.667s191.147-426.667 426.667-426.667 426.667 191.147 426.667 426.667-191.147 426.667-426.667 426.667zM725.333 405.333h-170.667v-170.667h-85.333v170.667h-170.667v85.333h170.667v170.667h85.333v-170.667h170.667v-85.333z" />
<glyph unicode="&#xe92e;" glyph-name="add-24px" d="M810.667 405.333h-256v-256h-85.333v256h-256v85.333h256v256h85.333v-256h256v-85.333z" />
<glyph unicode="&#xe92f;" glyph-name="archive-24px" d="M876.373 736.853l-59.307 71.68c-11.52 14.507-29.013 23.467-49.067 23.467h-512c-20.053 0-37.547-8.96-49.493-23.467l-58.88-71.68c-12.373-14.507-19.627-33.707-19.627-54.187v-533.333c0-46.933 38.4-85.333 85.333-85.333h597.333c46.933 0 85.333 38.4 85.333 85.333v533.333c0 20.48-7.253 39.68-19.627 54.187zM266.24 746.667h491.52l34.56-41.387h-560.213l34.133 41.387zM213.333 149.333v469.333h597.333v-469.333h-597.333zM573.867 533.333h-123.733v-128h-108.8l170.667-170.667 170.667 170.667h-108.8z" />
<glyph unicode="&#xe930;" glyph-name="assignment-24px1" d="M298.667 320h298.667v-85.333h-298.667zM298.667 490.667h426.667v-85.333h-426.667zM298.667 661.333h426.667v-85.333h-426.667zM810.667 832h-178.347c-17.92 49.493-64.853 85.333-120.32 85.333s-102.4-35.84-120.32-85.333h-178.347c-5.973 0-11.52-0.427-17.067-1.707-16.64-3.413-31.573-11.947-43.093-23.467-7.68-7.68-14.080-17.067-18.347-27.307-4.267-9.813-6.827-20.907-6.827-32.853v-597.333c0-11.52 2.56-23.040 6.827-33.28s10.667-19.2 18.347-27.307c11.52-11.52 26.453-20.053 43.093-23.467 5.547-0.853 11.093-1.28 17.067-1.28h597.333c46.933 0 85.333 38.4 85.333 85.333v597.333c0 46.933-38.4 85.333-85.333 85.333zM512 842.667c17.493 0 32-14.507 32-32s-14.507-32-32-32-32 14.507-32 32 14.507 32 32 32zM810.667 149.333h-597.333v597.333h597.333v-597.333z" />
<glyph unicode="&#xe931;" glyph-name="broken-link" d="M778.968 960c-65.438 0-126.97-25.501-173.251-71.781l-190.809-190.809c14.583 2.036 29.152 4.247 44.058 4.247 41.101 0 81.375-7.985 118.4-22.79l118.853 118.853c22.124 22.095 51.5 34.282 82.749 34.282 64.532 0 117.031-52.499 117.031-117.031 0-31.251-12.187-60.625-34.282-82.749l-213.934-213.938c-44.251-44.187-121.25-44.219-165.501-0.032l-90.438-90.563c46.251-46.219 107.781-71.688 173.187-71.688 65.438 0 126.968 25.501 173.251 71.781l213.938 213.938c46.281 46.281 71.781 107.813 71.781 173.251-0.002 135.124-109.909 245.030-245.034 245.030zM445.512 216.011l-117.73-117.73c-22.124-22.095-51.5-34.282-82.749-34.282-64.532 0-117.031 52.499-117.031 117.031 0 31.249 12.187 60.625 34.282 82.749l213.938 213.938c44.251 44.187 121.25 44.219 165.501 0.032l90.438 90.563c-92.531 92.438-253.875 92.468-346.438-0.093l-213.94-213.938c-46.283-46.281-71.781-107.811-71.781-173.249 0-135.126 109.907-245.030 245.030-245.030 65.438 0 126.968 25.501 173.251 71.781l188.276 188.276c-13.747-1.847-27.422-4.058-41.528-4.058-41.734-0.002-82.155 8.342-119.518 24.009z" />
<glyph unicode="&#xe932;" glyph-name="business-24px" d="M512 661.333v170.667h-426.667v-768h853.333v597.333h-426.667zM256 149.333h-85.333v85.333h85.333v-85.333zM256 320h-85.333v85.333h85.333v-85.333zM256 490.667h-85.333v85.333h85.333v-85.333zM256 661.333h-85.333v85.333h85.333v-85.333zM426.667 149.333h-85.333v85.333h85.333v-85.333zM426.667 320h-85.333v85.333h85.333v-85.333zM426.667 490.667h-85.333v85.333h85.333v-85.333zM426.667 661.333h-85.333v85.333h85.333v-85.333zM853.333 149.333h-341.333v85.333h85.333v85.333h-85.333v85.333h85.333v85.333h-85.333v85.333h341.333v-426.667zM768 490.667h-85.333v-85.333h85.333v85.333zM768 320h-85.333v-85.333h85.333v85.333z" />
<glyph unicode="&#xe933;" glyph-name="category-24px1" d="M512 874.667l-234.667-384h469.333l-234.667 384zM512 710.827l82.347-134.827h-165.12l82.773 134.827zM746.667 405.333c-106.24 0-192-85.76-192-192s85.76-192 192-192 192 85.76 192 192-85.76 192-192 192zM746.667 106.667c-58.88 0-106.667 47.787-106.667 106.667s47.787 106.667 106.667 106.667 106.667-47.787 106.667-106.667-47.787-106.667-106.667-106.667zM128 42.667h341.333v341.333h-341.333v-341.333zM213.333 298.667h170.667v-170.667h-170.667v170.667z" />
<glyph unicode="&#xe934;" glyph-name="check_box_outline_blank-24px" d="M810.667 746.667v-597.333h-597.333v597.333h597.333zM810.667 832h-597.333c-46.933 0-85.333-38.4-85.333-85.333v-597.333c0-46.933 38.4-85.333 85.333-85.333h597.333c46.933 0 85.333 38.4 85.333 85.333v597.333c0 46.933-38.4 85.333-85.333 85.333z" />
<glyph unicode="&#xe935;" glyph-name="check_box-24px" d="M810.667 832h-597.333c-47.36 0-85.333-38.4-85.333-85.333v-597.333c0-46.933 37.973-85.333 85.333-85.333h597.333c47.36 0 85.333 38.4 85.333 85.333v597.333c0 46.933-37.973 85.333-85.333 85.333zM426.667 234.667l-213.333 213.333 60.16 60.16 153.173-152.747 323.84 323.84 60.16-60.587-384-384z" />
<glyph unicode="&#xe936;" glyph-name="create-24px" d="M128 224v-160h160l471.893 471.893-160 160-471.893-471.893zM252.587 149.333h-39.253v39.253l386.56 386.56 39.253-39.253-386.56-386.56zM883.627 719.787l-99.84 99.84c-8.533 8.533-19.2 12.373-30.293 12.373s-21.76-4.267-29.867-12.373l-78.080-78.080 160-160 78.080 78.080c16.64 16.64 16.64 43.52 0 60.16z" />
<glyph unicode="&#xe937;" glyph-name="delete-24px1" d="M682.667 576v-426.667h-341.333v426.667h341.333zM618.667 832h-213.333l-42.667-42.667h-149.333v-85.333h597.333v85.333h-149.333l-42.667 42.667zM768 661.333h-512v-512c0-46.933 38.4-85.333 85.333-85.333h341.333c46.933 0 85.333 38.4 85.333 85.333v512z" />
<glyph unicode="&#xe938;" glyph-name="done-24px" d="M384 268.8l-179.2 179.2-59.733-59.733 238.933-238.933 512 512-59.733 59.733-452.267-452.267z" />
<glyph unicode="&#xe939;" glyph-name="favorite_border-24px" d="M704 832c-74.24 0-145.493-34.56-192-89.173-46.507 54.613-117.76 89.173-192 89.173-131.413 0-234.667-103.253-234.667-234.667 0-161.28 145.067-292.693 364.8-492.373l61.867-55.893 61.867 56.32c219.733 199.253 364.8 330.667 364.8 491.947 0 131.413-103.253 234.667-234.667 234.667zM516.267 168.533l-4.267-4.267-4.267 4.267c-203.093 183.893-337.067 305.493-337.067 428.8 0 85.333 64 149.333 149.333 149.333 65.707 0 129.707-42.24 152.32-100.693h79.787c22.187 58.453 86.187 100.693 151.893 100.693 85.333 0 149.333-64 149.333-149.333 0-123.307-133.973-244.907-337.067-428.8z" />
<glyph unicode="&#xe93a;" glyph-name="favorite-24px" d="M512 49.067l-61.867 56.32c-219.733 199.253-364.8 330.667-364.8 491.947 0 131.413 103.253 234.667 234.667 234.667 74.24 0 145.493-34.56 192-89.173 46.507 54.613 117.76 89.173 192 89.173 131.413 0 234.667-103.253 234.667-234.667 0-161.28-145.067-292.693-364.8-492.373l-61.867-55.893z" />
<glyph unicode="&#xe93b;" glyph-name="file_copy-24px" d="M682.667 917.333h-512c-46.933 0-85.333-38.4-85.333-85.333v-597.333h85.333v597.333h512v85.333zM640 746.667h-298.667c-46.933 0-84.907-38.4-84.907-85.333l-0.427-597.333c0-46.933 37.973-85.333 84.907-85.333h469.76c46.933 0 85.333 38.4 85.333 85.333v426.667l-256 256zM341.333 64v597.333h256v-213.333h213.333v-384h-469.333z" />
<glyph unicode="&#xe93c;" glyph-name="folder_open-24px" d="M853.333 704h-341.333l-85.333 85.333h-256c-46.933 0-84.907-38.4-84.907-85.333l-0.427-512c0-46.933 38.4-85.333 85.333-85.333h682.667c46.933 0 85.333 38.4 85.333 85.333v426.667c0 46.933-38.4 85.333-85.333 85.333zM853.333 192h-682.667v426.667h682.667v-426.667z" />
<glyph unicode="&#xe93d;" glyph-name="format_list_numbered-24px" d="M85.333 234.667h85.333v-21.333h-42.667v-42.667h42.667v-21.333h-85.333v-42.667h128v170.667h-128v-42.667zM128 618.667h42.667v170.667h-85.333v-42.667h42.667v-128zM85.333 490.667h76.8l-76.8-89.6v-38.4h128v42.667h-76.8l76.8 89.6v38.4h-128v-42.667zM298.667 746.667v-85.333h597.333v85.333h-597.333zM298.667 149.333h597.333v85.333h-597.333v-85.333zM298.667 405.333h597.333v85.333h-597.333v-85.333z" />
<glyph unicode="&#xe93e;" glyph-name="home-24px" d="M512 717.227l213.333-192v-333.227h-85.333v256h-256v-256h-85.333v333.227l213.333 192zM512 832l-426.667-384h128v-341.333h256v256h85.333v-256h256v341.333h128l-426.667 384z" />
<glyph unicode="&#xe93f;" glyph-name="library_books-24px" d="M170.667 704h-85.333v-597.333c0-46.933 38.4-85.333 85.333-85.333h597.333v85.333h-597.333v597.333zM853.333 874.667h-512c-46.933 0-85.333-38.4-85.333-85.333v-512c0-46.933 38.4-85.333 85.333-85.333h512c46.933 0 85.333 38.4 85.333 85.333v512c0 46.933-38.4 85.333-85.333 85.333zM853.333 277.333h-512v512h512v-512zM426.667 576h341.333v-85.333h-341.333zM426.667 448h170.667v-85.333h-170.667zM426.667 704h341.333v-85.333h-341.333z" />
<glyph unicode="&#xe940;" glyph-name="local_mall-24px" d="M810.667 704h-85.333c0 117.76-95.573 213.333-213.333 213.333s-213.333-95.573-213.333-213.333h-85.333c-46.933 0-85.333-38.4-85.333-85.333v-512c0-46.933 38.4-85.333 85.333-85.333h597.333c46.933 0 85.333 38.4 85.333 85.333v512c0 46.933-38.4 85.333-85.333 85.333zM512 832c70.827 0 128-57.173 128-128h-256c0 70.827 57.173 128 128 128zM810.667 106.667h-597.333v512h597.333v-512zM512 448c-70.827 0-128 57.173-128 128h-85.333c0-117.76 95.573-213.333 213.333-213.333s213.333 95.573 213.333 213.333h-85.333c0-70.827-57.173-128-128-128z" />
<glyph unicode="&#xe941;" glyph-name="local_shipping-24px" d="M853.333 618.667h-128v170.667h-597.333c-46.933 0-85.333-38.4-85.333-85.333v-469.333h85.333c0-70.827 57.173-128 128-128s128 57.173 128 128h256c0-70.827 57.173-128 128-128s128 57.173 128 128h85.333v213.333l-128 170.667zM832 554.667l83.627-106.667h-190.293v106.667h106.667zM256 192c-23.467 0-42.667 19.2-42.667 42.667s19.2 42.667 42.667 42.667 42.667-19.2 42.667-42.667-19.2-42.667-42.667-42.667zM350.72 320c-23.467 26.027-56.747 42.667-94.72 42.667s-71.253-16.64-94.72-42.667h-33.28v384h512v-384h-289.28zM768 192c-23.467 0-42.667 19.2-42.667 42.667s19.2 42.667 42.667 42.667 42.667-19.2 42.667-42.667-19.2-42.667-42.667-42.667z" />
<glyph unicode="&#xe942;" glyph-name="monetization_on-24px1" d="M512 874.667c-235.52 0-426.667-191.147-426.667-426.667s191.147-426.667 426.667-426.667 426.667 191.147 426.667 426.667-191.147 426.667-426.667 426.667zM512 106.667c-188.16 0-341.333 153.173-341.333 341.333s153.173 341.333 341.333 341.333 341.333-153.173 341.333-341.333-153.173-341.333-341.333-341.333zM525.227 484.693c-75.52 19.2-99.84 40.107-99.84 71.253 0 35.84 33.707 61.013 89.6 61.013 58.88 0 81.067-28.16 82.773-69.973h72.96c-2.133 57.173-37.12 109.653-106.24 126.72v72.96h-99.413v-72.107c-64.427-13.653-116.053-55.467-116.053-119.893 0-76.373 63.573-114.773 156.16-136.96 83.2-19.627 99.84-49.067 99.84-79.787 0-22.613-16.64-59.307-89.6-59.307-68.267 0-95.147 30.72-98.987 69.973h-73.387c4.267-72.533 58.027-113.493 122.027-126.72v-72.533h99.84v71.253c64.853 12.373 116.053 49.493 116.48 118.187-0.427 93.867-81.067 126.293-156.16 145.92z" />
<glyph unicode="&#xe943;" glyph-name="more_vert-24px" d="M512 618.667c46.933 0 85.333 38.4 85.333 85.333s-38.4 85.333-85.333 85.333-85.333-38.4-85.333-85.333 38.4-85.333 85.333-85.333zM512 533.333c-46.933 0-85.333-38.4-85.333-85.333s38.4-85.333 85.333-85.333 85.333 38.4 85.333 85.333-38.4 85.333-85.333 85.333zM512 277.333c-46.933 0-85.333-38.4-85.333-85.333s38.4-85.333 85.333-85.333 85.333 38.4 85.333 85.333-38.4 85.333-85.333 85.333z" />
<glyph unicode="&#xe944;" glyph-name="notification_important-24px" d="M427.093 63.573c0-46.933 37.973-84.907 84.907-84.907s84.907 37.973 84.907 84.907h-169.813zM512 704c117.76 0 213.333-95.573 213.333-213.333v-298.667h-426.667v298.667c0 117.76 95.573 213.333 213.333 213.333zM512 896c-35.413 0-64-28.587-64-64v-49.92c-133.973-29.013-234.667-148.48-234.667-291.413v-256l-85.333-85.333v-42.667h768v42.667l-85.333 85.333v256c0 142.933-100.693 262.4-234.667 291.413v49.92c0 35.413-28.587 64-64 64zM469.333 618.667h85.333v-170.667h-85.333zM469.333 362.667h85.333v-85.333h-85.333z" />
<glyph unicode="&#xe945;" glyph-name="payment-24px" d="M853.333 789.333h-682.667c-47.36 0-84.907-37.973-84.907-85.333l-0.427-512c0-47.36 37.973-85.333 85.333-85.333h682.667c47.36 0 85.333 37.973 85.333 85.333v512c0 47.36-37.973 85.333-85.333 85.333zM853.333 192h-682.667v256h682.667v-256zM853.333 618.667h-682.667v85.333h682.667v-85.333z" />
<glyph unicode="&#xe946;" glyph-name="delete-24px" d="M682.667 576v-426.667h-341.333v426.667h341.333zM618.667 832h-213.333l-42.667-42.667h-149.333v-85.333h597.333v85.333h-149.333l-42.667 42.667zM768 661.333h-512v-512c0-46.933 38.4-85.333 85.333-85.333h341.333c46.933 0 85.333 38.4 85.333 85.333v512z" />
<glyph unicode="&#xe947;" glyph-name="priority_high-24px" d="M597.333 149.333c0-47.128-38.205-85.333-85.333-85.333s-85.333 38.205-85.333 85.333c0 47.128 38.205 85.333 85.333 85.333s85.333-38.205 85.333-85.333zM426.667 832h170.667v-512h-170.667z" />
<glyph unicode="&#xe948;" glyph-name="radio_button_checked-24px" d="M512 661.333c-117.76 0-213.333-95.573-213.333-213.333s95.573-213.333 213.333-213.333 213.333 95.573 213.333 213.333-95.573 213.333-213.333 213.333zM512 874.667c-235.52 0-426.667-191.147-426.667-426.667s191.147-426.667 426.667-426.667 426.667 191.147 426.667 426.667-191.147 426.667-426.667 426.667zM512 106.667c-188.587 0-341.333 152.747-341.333 341.333s152.747 341.333 341.333 341.333 341.333-152.747 341.333-341.333-152.747-341.333-341.333-341.333z" />
<glyph unicode="&#xe949;" glyph-name="radio_button_unchecked-24px" d="M512 874.667c-235.52 0-426.667-191.147-426.667-426.667s191.147-426.667 426.667-426.667 426.667 191.147 426.667 426.667-191.147 426.667-426.667 426.667zM512 106.667c-188.587 0-341.333 152.747-341.333 341.333s152.747 341.333 341.333 341.333 341.333-152.747 341.333-341.333-152.747-341.333-341.333-341.333z" />
<glyph unicode="&#xe94a;" glyph-name="remove_red_eye-24px" d="M512 682.667c161.707 0 305.92-90.88 376.32-234.667-70.4-143.787-214.187-234.667-376.32-234.667s-305.92 90.88-376.32 234.667c70.4 143.787 214.613 234.667 376.32 234.667zM512 768c-213.333 0-395.52-132.693-469.333-320 73.813-187.307 256-320 469.333-320s395.52 132.693 469.333 320c-73.813 187.307-256 320-469.333 320zM512 554.667c58.88 0 106.667-47.787 106.667-106.667s-47.787-106.667-106.667-106.667-106.667 47.787-106.667 106.667 47.787 106.667 106.667 106.667zM512 640c-105.813 0-192-86.187-192-192s86.187-192 192-192 192 86.187 192 192-86.187 192-192 192z" />
<glyph unicode="&#xe94b;" glyph-name="remove_shopping_cart-24px" d="M60.16 911.787l-60.16-60.16 187.307-187.307 94.293-198.827-57.6-104.533c-6.827-11.947-10.667-26.027-10.667-40.96 0-46.933 38.4-85.333 85.333-85.333h318.293l58.88-58.88c-21.333-15.36-35.413-40.533-35.413-69.12 0-46.933 37.973-85.333 84.907-85.333 28.587 0 53.76 14.080 69.12 35.84l121.173-121.173 60.16 60.16-915.627 915.627zM298.667 320l46.933 85.333h100.693l85.333-85.333h-232.96zM853.333 789.333h-549.547l85.333-85.333h392.107l-117.76-213.333h-61.44l82.773-82.773c23.040 5.973 42.24 20.907 53.333 41.387l152.747 276.907c15.787 28.16-5.12 63.147-37.547 63.147zM298.667 192c-46.933 0-84.907-38.4-84.907-85.333s37.973-85.333 84.907-85.333 85.333 38.4 85.333 85.333-38.4 85.333-85.333 85.333z" />
<glyph unicode="&#xe94c;" glyph-name="report_problem-24px-2" d="M512 704.427l321.28-555.093h-642.56l321.28 555.093zM512 874.667l-469.333-810.667h938.667l-469.333 810.667zM554.667 277.333h-85.333v-85.333h85.333v85.333zM554.667 533.333h-85.333v-170.667h85.333v170.667z" />
<glyph unicode="&#xe94d;" glyph-name="share-24px-1" d="M768 273.92c-32.427 0-61.44-12.8-83.627-32.853l-304.213 177.067c2.133 9.813 3.84 19.627 3.84 29.867s-1.707 20.053-3.84 29.867l300.8 175.36c23.040-21.333 53.333-34.56 87.040-34.56 70.827 0 128 57.173 128 128s-57.173 128-128 128-128-57.173-128-128c0-10.24 1.707-20.053 3.84-29.867l-300.8-175.36c-23.040 21.333-53.333 34.56-87.040 34.56-70.827 0-128-57.173-128-128s57.173-128 128-128c33.707 0 64 13.227 87.040 34.56l303.787-177.493c-2.133-8.96-3.413-18.347-3.413-27.733 0-68.693 55.893-124.587 124.587-124.587s124.587 55.893 124.587 124.587c0 68.693-55.893 124.587-124.587 124.587zM768 789.333c23.467 0 42.667-19.2 42.667-42.667s-19.2-42.667-42.667-42.667-42.667 19.2-42.667 42.667 19.2 42.667 42.667 42.667zM256 405.333c-23.467 0-42.667 19.2-42.667 42.667s19.2 42.667 42.667 42.667 42.667-19.2 42.667-42.667-19.2-42.667-42.667-42.667zM768 105.813c-23.467 0-42.667 19.2-42.667 42.667s19.2 42.667 42.667 42.667 42.667-19.2 42.667-42.667-19.2-42.667-42.667-42.667z" />
<glyph unicode="&#xe94e;" glyph-name="shopping_cart-24px" d="M663.467 405.333c32 0 60.16 17.493 74.667 43.947l152.747 276.907c15.787 28.16-4.693 63.147-37.12 63.147h-631.467l-40.107 85.333h-139.52v-85.333h85.333l153.6-323.84-57.6-104.107c-31.147-57.173 9.813-126.72 74.667-126.72h512v85.333h-512l46.933 85.333h317.867zM262.827 704h518.4l-117.76-213.333h-299.52l-101.12 213.333zM298.667 192c-46.933 0-84.907-38.4-84.907-85.333s37.973-85.333 84.907-85.333 85.333 38.4 85.333 85.333-38.4 85.333-85.333 85.333zM725.333 192c-46.933 0-84.907-38.4-84.907-85.333s37.973-85.333 84.907-85.333 85.333 38.4 85.333 85.333-38.4 85.333-85.333 85.333z" />
<glyph unicode="&#xe94f;" glyph-name="storefront-24px" d="M934.4 580.693l-44.8 186.453c-9.387 38.4-42.667 64.853-81.493 64.853h-592.64c-38.4 0-72.107-26.88-81.067-64.853l-44.8-186.453c-10.24-43.52-0.853-87.893 26.453-122.88 3.413-4.693 8.107-8.107 11.947-12.373v-296.107c0-46.933 38.4-85.333 85.333-85.333h597.333c46.933 0 85.333 38.4 85.333 85.333v296.107c3.84 3.84 8.533 7.68 11.947 11.947 27.307 34.987 37.12 79.787 26.453 123.307zM806.827 747.093l44.8-186.453c4.267-17.92 0.427-35.84-10.667-49.92-5.973-7.68-18.773-20.053-40.107-20.053-26.027 0-48.64 20.907-51.627 48.64l-24.747 207.36 82.347 0.427zM554.667 746.667h83.627l23.040-192.853c2.133-16.64-2.987-33.28-14.080-45.653-9.387-11.093-23.040-17.493-40.533-17.493-28.587 0-52.053 25.173-52.053 55.893v200.107zM362.24 553.813l23.467 192.853h83.627v-200.107c0-30.72-23.467-55.893-55.040-55.893-14.507 0-27.733 6.4-37.973 17.493-10.667 12.373-15.787 29.013-14.080 45.653zM172.373 560.64l43.093 186.027h84.053l-24.747-207.36c-3.413-27.733-25.6-48.64-51.627-48.64-20.907 0-34.133 12.373-39.68 20.053-11.52 13.653-15.36 32-11.093 49.92zM213.333 149.333v257.28c3.413-0.427 6.4-1.28 9.813-1.28 37.12 0 70.827 15.36 95.573 40.533 25.6-25.6 59.733-40.533 98.56-40.533 37.12 0 70.4 15.36 95.147 39.68 25.173-24.32 59.307-39.68 97.707-39.68 35.84 0 69.973 14.933 95.573 40.533 24.747-25.173 58.453-40.533 95.573-40.533 3.413 0 6.4 0.853 9.813 1.28v-257.28h-597.76z" />
<glyph unicode="&#xe950;" glyph-name="centarix-icons-06" d="M540.891 686.296c-22.157 26.067-35.19 21.288-57.347 0-127.728-130.335-255.891-260.67-387.095-386.661-34.479-28.889-56.248-71.966-56.248-120.128 0-4.97 0.232-9.886 0.685-14.738l-0.047 0.621c4.779-82.546 0-82.546 92.104-82.546 49.093-15.206 86.89 14.771 123.818 53.872 93.407 97.317 190.289 191.158 285 286.303 43.445 43.445 83.849 86.89 125.556 130.335-36.494 49.093-87.325 85.587-126.425 132.942zM527.857 530.328c-113.392-114.261-227.652-227.652-341.044-341.913-16.075-16.509-36.928-31.715-53.872-16.509s-4.345 36.928 12.165 53.872c115.564 114.695 230.259 229.824 347.56 344.954 7.82 7.386 13.468 23.46 29.108 14.771 13.399-8.195 24.884-16.362 35.779-25.227l-0.588 0.464c-13.034-14.771-19.55-23.026-26.936-30.412zM750.731 631.121c-9.992-9.992-19.985-19.116-31.715-29.977-7.386 6.082-14.337 11.296-20.419 17.378-39.969 39.969-79.070 80.373-119.908 119.039-17.378 16.075-15.206 25.198 0 43.445 83.415 90.8 82.98 91.235 170.739 3.91l3.91-3.91c72.119-74.725 72.119-75.594-2.607-149.885zM901.919 47.654c-1.24-0.308-2.663-0.485-4.127-0.485s-2.888 0.177-4.249 0.51l0.122-0.025-97.317 51.265-97.751-51.265c-2.287-1.227-5.003-1.948-7.887-1.948-6.583 0-12.289 3.754-15.094 9.238l-0.044 0.096c-0.508 1.558-0.8 3.352-0.8 5.213s0.293 3.655 0.835 5.336l-0.034-0.123 16.944 112.523-79.070 76.898c-3.046 3.063-4.929 7.285-4.929 11.947s1.883 8.885 4.93 11.948l-0.001-0.001c2.507 2.502 5.794 4.224 9.465 4.768l0.093 0.011 109.047 16.075 49.962 95.579c3.177 5.178 8.808 8.58 15.233 8.58 3.357 0 6.496-0.928 9.176-2.542l-0.080 0.045c2.358-1.714 4.368-3.724 6.029-6.005l0.054-0.077 48.658-99.055 109.047-16.075c8.45-1.042 14.927-8.176 14.927-16.823 0-0.809-0.057-1.604-0.166-2.382l0.010 0.090c-0.916-3.742-2.737-6.974-5.22-9.565l0.007 0.007-79.939-73.422 18.681-109.047c0.161-0.877 0.253-1.886 0.253-2.916 0-8.218-5.85-15.069-13.613-16.616l-0.108-0.018zM796.348 137.151c2.886-0.122 5.561-0.912 7.911-2.219l-0.091 0.046 75.16-39.101-14.337 82.111c-0.144 0.85-0.226 1.829-0.226 2.827 0 4.812 1.908 9.179 5.009 12.384l-0.005-0.005 60.823 59.085-83.849 12.599c-5.659 0.865-10.373 4.289-12.987 9.032l-0.046 0.092-37.363 77.767-37.797-76.029c-2.414-4.874-7.030-8.339-12.512-9.113l-0.088-0.010-83.849-12.165 60.823-59.085c3.096-3.2 5.005-7.567 5.005-12.379 0-0.998-0.082-1.977-0.24-2.93l0.014 0.104-14.337-83.415 75.16 39.101c2.232 1.362 4.931 2.17 7.819 2.172h0.001z" />
<glyph unicode="&#xe951;" glyph-name="update-24px" d="M469.333 618.667v-213.333l181.333-107.52 32.853 54.613-150.187 89.173v177.067h-64zM896 533.333v298.667l-112.64-112.64c-69.12 69.547-165.12 112.64-271.36 112.64-212.053 0-384-171.947-384-384s171.947-384 384-384 384 171.947 384 384h-85.333c0-164.693-133.973-298.667-298.667-298.667s-298.667 133.973-298.667 298.667 133.973 298.667 298.667 298.667c82.347 0 157.013-33.707 211.2-87.467l-125.867-125.867h298.667z" />
<glyph unicode="&#xe952;" glyph-name="perm_contact_calendar-24px" d="M889.173 779.947c-2.133 5.12-4.693 9.813-7.68 14.507-5.973 8.96-14.080 17.067-23.040 23.040-4.693 2.987-9.387 5.547-14.507 7.68-10.24 4.267-21.333 6.827-33.28 6.827h-42.667v85.333h-85.333v-85.333h-341.333v85.333h-85.333v-85.333h-42.667c-17.92 0-34.133-5.547-47.787-14.507-8.96-5.973-17.067-14.080-23.040-23.040-2.987-4.693-5.547-9.387-7.68-14.507-4.267-10.24-6.827-21.333-6.827-33.28v-597.333c0-46.933 37.973-85.333 85.333-85.333h597.333c11.947 0 23.040 2.56 33.28 6.827 5.12 2.133 9.813 4.693 14.507 7.68 8.96 5.973 17.067 14.080 23.040 23.040 8.96 13.653 14.507 30.293 14.507 47.787v597.333c0 11.947-2.56 23.040-6.827 33.28zM213.333 149.333v597.333h597.333v-597.333h-597.333zM512 410.453c-86.613 0-256-46.080-256-152.747v-65.707h512v65.28c0 107.093-169.387 153.173-256 153.173zM354.56 277.333c29.44 23.893 101.547 47.787 157.44 47.787s128.427-23.893 157.44-47.787h-314.88zM512 448c70.4 0 128 57.6 128 128s-57.6 128-128 128-128-57.6-128-128 57.6-128 128-128zM512 618.667c23.467 0 42.667-19.2 42.667-42.667s-19.2-42.667-42.667-42.667-42.667 19.2-42.667 42.667 19.2 42.667 42.667 42.667z" />
<glyph unicode="&#xe953;" glyph-name="place-24px" d="M512 448c-46.933 0-85.333 38.4-85.333 85.333s38.4 85.333 85.333 85.333 85.333-38.4 85.333-85.333-38.4-85.333-85.333-85.333zM768 524.8c0 154.88-113.067 264.533-256 264.533s-256-109.653-256-264.533c0-99.84 83.2-232.107 256-389.973 172.8 157.867 256 290.133 256 389.973zM512 874.667c179.2 0 341.333-137.387 341.333-349.867 0-141.653-113.92-309.333-341.333-503.467-227.413 194.133-341.333 361.813-341.333 503.467 0 212.48 162.133 349.867 341.333 349.867z" />
<glyph unicode="&#xe954;" glyph-name="assignment-24px" d="M298.667 320h298.667v-85.333h-298.667zM298.667 490.667h426.667v-85.333h-426.667zM298.667 661.333h426.667v-85.333h-426.667zM810.667 832h-178.347c-17.92 49.493-64.853 85.333-120.32 85.333s-102.4-35.84-120.32-85.333h-178.347c-5.973 0-11.52-0.427-17.067-1.707-16.64-3.413-31.573-11.947-43.093-23.467-7.68-7.68-14.080-17.067-18.347-27.307-4.267-9.813-6.827-20.907-6.827-32.853v-597.333c0-11.52 2.56-23.040 6.827-33.28s10.667-19.2 18.347-27.307c11.52-11.52 26.453-20.053 43.093-23.467 5.547-0.853 11.093-1.28 17.067-1.28h597.333c46.933 0 85.333 38.4 85.333 85.333v597.333c0 46.933-38.4 85.333-85.333 85.333zM512 842.667c17.493 0 32-14.507 32-32s-14.507-32-32-32-32 14.507-32 32 14.507 32 32 32zM810.667 149.333h-597.333v597.333h597.333v-597.333z" />
<glyph unicode="&#xe955;" glyph-name="category-24px" d="M512 874.667l-234.667-384h469.333l-234.667 384zM512 710.827l82.347-134.827h-165.12l82.773 134.827zM746.667 405.333c-106.24 0-192-85.76-192-192s85.76-192 192-192 192 85.76 192 192-85.76 192-192 192zM746.667 106.667c-58.88 0-106.667 47.787-106.667 106.667s47.787 106.667 106.667 106.667 106.667-47.787 106.667-106.667-47.787-106.667-106.667-106.667zM128 42.667h341.333v341.333h-341.333v-341.333zM213.333 298.667h170.667v-170.667h-170.667v170.667z" />
<glyph unicode="&#xe956;" glyph-name="face-24px" d="M437.333 405.333c0-29.44-23.893-53.333-53.333-53.333s-53.333 23.893-53.333 53.333 23.893 53.333 53.333 53.333 53.333-23.893 53.333-53.333zM640 458.667c-29.44 0-53.333-23.893-53.333-53.333s23.893-53.333 53.333-53.333 53.333 23.893 53.333 53.333-23.893 53.333-53.333 53.333zM938.667 448c0-235.52-191.147-426.667-426.667-426.667s-426.667 191.147-426.667 426.667 191.147 426.667 426.667 426.667 426.667-191.147 426.667-426.667zM454.827 784.213c59.733-98.987 168.107-165.547 291.84-165.547 19.627 0 38.827 2.133 57.173 5.12-59.733 98.987-168.107 165.547-291.84 165.547-19.627 0-38.827-2.133-57.173-5.12zM188.587 555.947c72.96 41.387 129.28 108.8 156.16 189.44-72.96-41.387-129.28-108.8-156.16-189.44zM853.333 448c0 33.28-5.12 65.28-14.080 95.573-29.867-6.4-60.587-10.24-92.587-10.24-133.547 0-252.587 61.44-331.093 157.44-44.8-109.227-133.973-194.987-244.907-236.8 0.427-1.707 0-3.84 0-5.973 0-188.16 153.173-341.333 341.333-341.333s341.333 153.173 341.333 341.333z" />
<glyph unicode="&#xe957;" glyph-name="format_list_bulleted-24px-01" d="M906.667 237.653h-526.080v-105.387h526.080zM906.667 500.48h-526.080v-104.96h526.080zM906.667 763.733h-526.080v-105.387h526.080zM224 763.733h-106.667v-105.387h105.387zM224 132.267v105.387h-106.667v-105.387zM224 500.48h-106.667v-104.96h105.387z" />
<glyph unicode="&#xe958;" glyph-name="comment-24px" d="M938.24 789.333c0 46.933-37.973 85.333-84.907 85.333h-682.667c-46.933 0-85.333-38.4-85.333-85.333v-512c0-46.933 38.4-85.333 85.333-85.333h597.333l170.667-170.667-0.427 768zM853.333 789.333v-561.92l-49.92 49.92h-632.747v512h682.667zM256 448h512v-85.333h-512zM256 576h512v-85.333h-512zM256 704h512v-85.333h-512z" />
<glyph unicode="&#xe959;" glyph-name="centarix-icons-19" d="M642.552 903.956h-260.67v-86.89h260.67zM468.772 339.17h86.89v260.67h-86.89zM816.333 626.342l61.692 61.692c-18.772 22.435-38.823 42.486-60.511 60.649l-0.747 0.609-60.389-61.692c-66.264 53.328-151.44 85.596-244.152 85.596-215.946 0-391.006-175.059-391.006-391.006s175.059-391.006 391.006-391.006c215.946 0 391.006 175.059 391.006 391.006 0 92.712-32.268 177.888-86.185 244.909l0.589-0.757zM512.217 78.5c-167.958 0-304.115 136.157-304.115 304.115s136.157 304.115 304.115 304.115c167.958 0 304.115-136.157 304.115-304.115v0c0-167.958-136.157-304.115-304.115-304.115v0z" />
<glyph unicode="&#xe95a;" glyph-name="centarix-icons-20" d="M924.511 702.805v0c-1.468 1.547-3.028 2.969-4.686 4.274l-0.093 0.071c-15.522 21.088-39.964 34.831-67.651 35.622l-0.123 0.003h-45.617v86.89h-98.186v-86.89h-391.006v86.89h-99.924v-86.89h-43.445c-0.149 0.001-0.325 0.002-0.501 0.002-28.11 0-52.956-13.977-67.965-35.361l-0.176-0.265c-2.288-1.559-4.281-3.276-6.062-5.192l-0.020-0.022h0.869c-7.61-12.388-12.13-27.385-12.165-43.436v-509.62c0-47.988 38.902-86.89 86.89-86.89v0h677.308c47.988 0 86.89 38.902 86.89 86.89v0 510.045c-0.794 16.433-6.036 31.496-14.535 44.194l0.198-0.315zM851.958 148.881h-678.177v255.022h678.177zM851.958 573.773h-678.177v86.89h678.177z" />
<glyph unicode="&#xe95b;" glyph-name="notification_approve-24px" d="M512 832c213.333 0 384-170.667 384-384s-170.667-384-384-384-384 170.667-384 384 170.667 384 384 384zM512 874.667c-234.667 0-426.667-192-426.667-426.667s192-426.667 426.667-426.667 426.667 192 426.667 426.667-192 426.667-426.667 426.667v0zM674.133 610.133l-230.4-234.667-93.867 93.867-46.933-46.933 136.533-136.533 281.6 277.333z" />
<glyph unicode="&#xe95c;" glyph-name="notification_didnt_arrive-24px" d="M512 832c213.333 0 384-170.667 384-384s-170.667-384-384-384-384 170.667-384 384 170.667 384 384 384zM512 874.667c-234.667 0-426.667-192-426.667-426.667s192-426.667 426.667-426.667 426.667 192 426.667 426.667-192 426.667-426.667 426.667v0zM557.141 299.691c0-25.921-21.013-46.933-46.933-46.933s-46.933 21.013-46.933 46.933c0 25.921 21.013 46.933 46.933 46.933s46.933-21.013 46.933-46.933zM463.275 645.291h93.867v-264.533h-93.867v264.533z" />
<glyph unicode="&#xe95d;" glyph-name="notification_received-24px" d="M512 21.333c-234.667 0-426.667 192-426.667 426.667s192 426.667 426.667 426.667c234.667 0 426.667-192 426.667-426.667s-192-426.667-426.667-426.667zM512 836.267c-213.333 0-388.267-174.933-388.267-388.267s174.933-388.267 388.267-388.267 388.267 174.933 388.267 388.267-174.933 388.267-388.267 388.267zM661.333 563.2h-42.667c4.267 59.733-42.667 110.933-102.4 110.933s-110.933-42.667-110.933-102.4c0-4.267 0-4.267 0-8.533h-42.667c-25.6 0-42.667-21.333-42.667-42.667v-256c0-25.6 21.333-42.667 42.667-42.667h298.667c25.6 0 42.667 21.333 42.667 42.667v256c0 25.6-17.067 42.667-42.667 42.667zM512 627.2c34.133 0 64-29.867 64-64 0 0 0 0 0 0h-128c0 34.133 29.867 64 64 64 0 0 0 0 0 0zM661.333 264.533h-298.667v256h298.667v-256zM512 435.2c-34.133 0-64 29.867-64 64 0 0 0 0 0 0h-42.667c-4.267-59.733 42.667-110.933 102.4-110.933 59.733-4.267 110.933 42.667 110.933 102.4 0 4.267 0 4.267 0 8.533h-42.667c0-34.133-29.867-64-64-64 0 0 0 0 0 0v0z" />
<glyph unicode="&#xe95e;" glyph-name="notification_shared-24px" d="M512 832c213.333 0 384-170.667 384-384s-170.667-384-384-384-384 170.667-384 384 170.667 384 384 384zM512 874.667c-234.667 0-426.667-192-426.667-426.667s192-426.667 426.667-426.667 426.667 192 426.667 426.667-192 426.667-426.667 426.667v0zM648.533 354.133c-17.067 0-34.133-8.533-46.933-17.067l-162.133 93.867c4.267 8.533 4.267 21.333 0 34.133l162.133 93.867c29.867-25.6 72.533-25.6 98.133 4.267 25.6 25.6 25.6 68.267-4.267 93.867s-72.533 25.6-98.133-4.267c-12.8-12.8-17.067-29.867-17.067-46.933 0-4.267 0-12.8 0-17.067l-162.133-93.867c-29.867 25.6-72.533 25.6-98.133-4.267-21.333-25.6-21.333-68.267 8.533-93.867 25.6-25.6 68.267-25.6 93.867 0l162.133-93.867c0-4.267 0-8.533 0-12.8 0-38.4 29.867-68.267 68.267-68.267s68.267 29.867 68.267 68.267c-4.267 34.133-34.133 64-72.533 64v0 0zM648.533 631.467c12.8 0 21.333-8.533 21.333-21.333s-8.533-21.333-21.333-21.333c-12.8 0-21.333 8.533-21.333 21.333s8.533 21.333 21.333 21.333c0 0 0 0 0 0zM375.467 422.4c-12.8 0-21.333 8.533-21.333 21.333s8.533 21.333 21.333 21.333c12.8 0 21.333-8.533 21.333-21.333 0 0 0 0 0 0v0c0-8.533-8.533-21.333-21.333-21.333v0zM648.533 260.267c-12.8 0-21.333 8.533-21.333 21.333s8.533 21.333 21.333 21.333c12.8 0 21.333-8.533 21.333-21.333 0 0 0 0 0 0v0c4.267-8.533-8.533-21.333-21.333-21.333z" />
<glyph unicode="&#xe95f;" glyph-name="notification_time-24px" d="M512 832c213.333 0 384-170.667 384-384s-170.667-384-384-384-384 170.667-384 384 170.667 384 384 384zM512 874.667c-234.667 0-426.667-192-426.667-426.667s192-426.667 426.667-426.667 426.667 192 426.667 426.667-192 426.667-426.667 426.667v0zM513.408 647.125c-110.933 0-196.267-89.6-196.267-200.533s89.6-196.267 200.533-196.267c110.933 0 196.267 89.6 196.267 200.533-4.267 106.667-93.867 196.267-200.533 196.267 0 0 0 0 0 0zM513.408 288.725c-89.6 0-157.867 72.533-157.867 157.867s72.533 157.867 157.867 157.867 157.867-72.533 157.867-157.867-72.533-157.867-157.867-157.867zM521.941 548.992h-29.867v-119.467l102.4-64 12.8 25.6-89.6 51.2v106.667z" />
<glyph unicode="&#xe960;" glyph-name="notifications_border-24px" d="M512 832c213.333 0 384-170.667 384-384s-170.667-384-384-384-384 170.667-384 384 170.667 384 384 384zM512 874.667c-234.667 0-426.667-192-426.667-426.667s192-426.667 426.667-426.667 426.667 192 426.667 426.667-192 426.667-426.667 426.667v0z" />
<glyph unicode="&#xe961;" glyph-name="access_time-24px" d="M511.573 874.667c-235.52 0-426.24-191.147-426.24-426.667s190.72-426.667 426.24-426.667c235.947 0 427.093 191.147 427.093 426.667s-191.147 426.667-427.093 426.667zM512 106.667c-188.587 0-341.333 152.747-341.333 341.333s152.747 341.333 341.333 341.333 341.333-152.747 341.333-341.333-152.747-341.333-341.333-341.333zM533.333 661.333h-64v-256l224-134.4 32 52.48-192 113.92z" />
<glyph unicode="&#xe962;" glyph-name="arrow_back_ios-24px-1" d="M747.093 794.88l-75.947 75.52-421.973-422.4 422.4-422.4 75.52 75.52-346.88 346.88 346.88 346.88z" />
<glyph unicode="&#xe963;" glyph-name="arrow_forward_ios-24px" d="M276.907 101.12l75.52-75.52 422.4 422.4-422.4 422.4-75.52-75.52 346.88-346.88-346.88-346.88z" />
<glyph unicode="&#xe964;" glyph-name="insert_drive_file-24px-1" d="M597.333 874.667h-341.333c-46.933 0-84.907-38.4-84.907-85.333l-0.427-682.667c0-46.933 37.973-85.333 84.907-85.333h512.427c46.933 0 85.333 38.4 85.333 85.333v512l-256 256zM256 106.667v682.667h298.667v-213.333h213.333v-469.333h-512z" />
<glyph unicode="&#xe965;" glyph-name="luggage-24px-1" d="M405.333 192h-64v384h64v-384zM544 192h-64v384h64v-384zM682.667 192h-64v384h64v-384zM725.333 704h-85.333v128c0 23.467-19.2 42.667-42.667 42.667h-170.667c-23.467 0-42.667-19.2-42.667-42.667v-128h-85.333c-46.933 0-85.333-38.4-85.333-85.333v-469.333c0-46.933 38.4-85.333 85.333-85.333 0-23.467 19.2-42.667 42.667-42.667s42.667 19.2 42.667 42.667h256c0-23.467 19.2-42.667 42.667-42.667s42.667 19.2 42.667 42.667c46.933 0 85.333 38.4 85.333 85.333v469.333c0 46.933-38.4 85.333-85.333 85.333zM448 810.667h128v-106.667h-128v106.667zM725.333 149.333h-426.667v469.333h426.667v-469.333z" />
<glyph unicode="&#xe966;" glyph-name="sick-24px-1" d="M312.32 509.44l45.227 45.227-45.227 45.227 45.227 45.227 90.453-90.453-90.453-90.453-45.227 45.227zM192 576c1.28 0 2.133-0.427 3.413-0.427 50.773 125.44 173.227 213.76 316.587 213.76 93.44 0 177.493-37.547 239.36-98.133 6.4 25.6 19.2 55.040 34.56 83.627-74.24 62.293-169.813 99.84-274.347 99.84-208.213 0-381.44-149.76-418.56-347.307 23.893 29.867 60.16 48.64 98.987 48.64zM896 512c-17.92 0-34.987 3.84-50.773 9.387 5.12-23.467 8.107-48.213 8.107-73.387 0-188.587-152.747-341.333-341.333-341.333-143.36 0-265.813 88.32-316.587 213.76-1.28 0-2.133-0.427-3.413-0.427-22.187 0-44.373 5.973-64 17.067-13.653 7.68-25.173 17.92-34.987 29.867 37.973-196.693 210.347-345.6 418.133-345.6 236.373 0 427.52 191.147 427.52 426.667 0 23.467-2.56 46.507-5.973 69.12-11.947-2.987-23.893-5.12-36.693-5.12zM896 832c0 0-85.333-123.733-85.333-170.667s38.4-85.333 85.333-85.333 85.333 38.4 85.333 85.333c0 46.933-85.333 170.667-85.333 170.667zM666.453 645.12l-90.453-90.453 90.453-90.453 45.227 45.227-45.227 45.227 45.227 45.227-45.227 45.227zM365.227 234.667c29.44 50.773 84.053 85.333 146.773 85.333s117.333-34.56 146.773-85.333h71.68c-34.133 87.467-119.040 149.333-218.453 149.333-37.12 0-72.533-8.533-103.68-24.32v0l-152.747 88.32c0 22.187-11.093 43.52-31.573 55.040-30.72 17.493-69.547 7.253-87.467-23.467-17.493-30.72-7.253-69.547 23.467-87.467 20.48-11.947 44.8-10.667 63.573 0l126.72-73.387c-24.32-22.613-43.947-51.627-56.747-84.053h71.68z" />
<glyph unicode="&#xe967;" glyph-name="info-24px-2" d="M469.333 661.333h85.333v-85.333h-85.333zM469.333 490.667h85.333v-256h-85.333zM512 874.667c-235.52 0-426.667-191.147-426.667-426.667s191.147-426.667 426.667-426.667 426.667 191.147 426.667 426.667-191.147 426.667-426.667 426.667zM512 106.667c-188.16 0-341.333 153.173-341.333 341.333s153.173 341.333 341.333 341.333 341.333-153.173 341.333-341.333-153.173-341.333-341.333-341.333z" />
<glyph unicode="&#xe968;" glyph-name="description-24px-2" d="M341.333 277.333h341.333v-85.333h-341.333zM341.333 448h341.333v-85.333h-341.333zM597.333 874.667h-341.333c-46.933 0-85.333-38.4-85.333-85.333v-682.667c0-46.933 37.973-85.333 84.907-85.333h512.427c46.933 0 85.333 38.4 85.333 85.333v512l-256 256zM768 106.667h-512v682.667h298.667v-213.333h213.333v-469.333z" />
<glyph unicode="&#xe969;" glyph-name="highlight_off-24px" d="M622.507 618.667l-110.507-110.507-110.507 110.507-60.16-60.16 110.507-110.507-110.507-110.507 60.16-60.16 110.507 110.507 110.507-110.507 60.16 60.16-110.507 110.507 110.507 110.507-60.16 60.16zM512 874.667c-235.947 0-426.667-190.72-426.667-426.667s190.72-426.667 426.667-426.667 426.667 190.72 426.667 426.667-190.72 426.667-426.667 426.667zM512 106.667c-188.16 0-341.333 153.173-341.333 341.333s153.173 341.333 341.333 341.333 341.333-153.173 341.333-341.333-153.173-341.333-341.333-341.333z" />
<glyph unicode="&#xe96a;" glyph-name="event-24px" d="M810.667 789.333h-42.667v85.333h-85.333v-85.333h-341.333v85.333h-85.333v-85.333h-42.667c-47.36 0-84.907-38.4-84.907-85.333l-0.427-597.333c0-46.933 37.973-85.333 85.333-85.333h597.333c46.933 0 85.333 38.4 85.333 85.333v597.333c0 46.933-38.4 85.333-85.333 85.333zM810.667 106.667h-597.333v426.667h597.333v-426.667zM810.667 618.667h-597.333v85.333h597.333v-85.333zM512 405.333h213.333v-213.333h-213.333z" />
<glyph unicode="&#xe96b;" glyph-name="exit-24px" d="M580.267 149.333h-200.533c0 0 0 0 0 0h-226.133v597.333h426.667v-149.333h85.333v149.333c0 46.933-38.4 85.333-85.333 85.333h-422.4c-46.933 0-85.333-38.4-85.333-85.333v-597.333c0-46.933 38.4-85.333 85.333-85.333h426.667c46.933 0 85.333 38.4 85.333 85.333v149.333h-85.333v-149.333zM793.6 661.333l-59.733-59.733 110.933-110.933h-435.2v-85.333h435.2l-110.933-110.933 59.733-59.733 213.333 213.333z" />
<glyph unicode="&#xe96c;" glyph-name="entry-24px" d="M814.933 832h-512c-46.933 0-85.333-38.4-85.333-85.333v-170.667h85.333v170.667h512v-597.333h-512v170.667h-85.333v-170.667c0-46.933 38.4-85.333 85.333-85.333h379.733c0 0 0 0 0 0h132.267c46.933 0 85.333 38.4 85.333 85.333v597.333c0 46.933-38.4 85.333-85.333 85.333zM413.867 294.4l59.733-59.733 213.333 213.333-213.333 213.333-59.733-59.733 110.933-110.933h-435.2v-85.333h435.2z" />
<glyph unicode="&#xe96d;" glyph-name="toggle_off-24px-1" d="M725.333 704h-426.667c-141.227 0-256-114.773-256-256s114.773-256 256-256h426.667c141.227 0 256 114.773 256 256s-114.773 256-256 256zM725.333 277.333h-426.667c-94.293 0-170.667 76.373-170.667 170.667s76.373 170.667 170.667 170.667h426.667c94.293 0 170.667-76.373 170.667-170.667s-76.373-170.667-170.667-170.667zM298.667 576c-70.827 0-128-57.173-128-128s57.173-128 128-128 128 57.173 128 128-57.173 128-128 128z" />
<glyph unicode="&#xe96e;" glyph-name="toggle_on-24px-1" d="M725.333 704h-426.667c-141.227 0-256-114.773-256-256s114.773-256 256-256h426.667c141.227 0 256 114.773 256 256s-114.773 256-256 256zM725.333 277.333h-426.667c-94.293 0-170.667 76.373-170.667 170.667s76.373 170.667 170.667 170.667h426.667c94.293 0 170.667-76.373 170.667-170.667s-76.373-170.667-170.667-170.667zM725.333 576c-70.827 0-128-57.173-128-128s57.173-128 128-128 128 57.173 128 128-57.173 128-128 128z" />
<glyph unicode="&#xe96f;" glyph-name="notification_ordered-24px" d="M512 12.8c-238.933 0-435.2 196.267-435.2 435.2s196.267 435.2 435.2 435.2 435.2-196.267 435.2-435.2-196.267-435.2-435.2-435.2zM512 840.533c-217.6 0-392.533-174.933-392.533-392.533s174.933-392.533 392.533-392.533 392.533 174.933 392.533 392.533-174.933 392.533-392.533 392.533zM473.6 460.8l-46.933-51.2-17.067 17.067-29.867-25.6 46.933-46.933 4.267 4.267 68.267 72.533zM494.933 554.667l-21.333 21.333-46.933-51.2-17.067 21.333-25.6-25.6 42.667-46.933 72.533 72.533zM524.8 546.133h98.133v-38.4h-98.133v38.4zM524.8 430.933h98.133v-38.4h-98.133v38.4zM328.533 648.533v-388.267h362.667v388.267h-362.667zM358.4 294.4v320h298.667v-324.267h-298.667z" />
<glyph unicode="&#xe970;" glyph-name="pending-24px-1" d="M512 874.667c-235.52 0-426.667-191.147-426.667-426.667s191.147-426.667 426.667-426.667 426.667 191.147 426.667 426.667c0 235.52-191.147 426.667-426.667 426.667zM512 106.667c-188.587 0-341.333 152.747-341.333 341.333s152.747 341.333 341.333 341.333 341.333-152.747 341.333-341.333c0-188.587-152.747-341.333-341.333-341.333zM362.667 448c0-35.346-28.654-64-64-64s-64 28.654-64 64c0 35.346 28.654 64 64 64s64-28.654 64-64zM576 448c0-35.346-28.654-64-64-64s-64 28.654-64 64c0 35.346 28.654 64 64 64s64-28.654 64-64zM789.333 448c0-35.346-28.654-64-64-64s-64 28.654-64 64c0 35.346 28.654 64 64 64s64-28.654 64-64z" />
<glyph unicode="&#xe971;" glyph-name="security-24px" d="M512 917.333l-384-170.667v-256c0-236.8 163.84-458.24 384-512 220.16 53.76 384 275.2 384 512v256l-384 170.667zM512 448.427h298.667c-22.613-175.787-139.947-332.373-298.667-381.44v381.013h-298.667v243.2l298.667 132.693v-375.467z" />
<glyph unicode="&#xe972;" glyph-name="assignment_ind-24px-1" d="M810.667 832h-178.347c-17.92 49.493-64.853 85.333-120.32 85.333s-102.4-35.84-120.32-85.333h-178.347c-46.933 0-85.333-38.4-85.333-85.333v-597.333c0-46.933 38.4-85.333 85.333-85.333h597.333c46.933 0 85.333 38.4 85.333 85.333v597.333c0 46.933-38.4 85.333-85.333 85.333zM512 842.667c9.387 0 17.493-4.267 23.467-10.667 5.12-5.547 8.533-13.227 8.533-21.333 0-17.493-14.507-32-32-32s-32 14.507-32 32c0 8.107 3.413 15.787 8.533 21.333 5.973 6.4 14.080 10.667 23.467 10.667zM810.667 149.333h-597.333v597.333h597.333v-597.333zM512 704c-70.4 0-128-57.6-128-128s57.6-128 128-128 128 57.6 128 128-57.6 128-128 128zM512 533.333c-23.467 0-42.667 19.2-42.667 42.667s19.2 42.667 42.667 42.667 42.667-19.2 42.667-42.667-19.2-42.667-42.667-42.667zM256 257.28v-65.28h512v65.28c0 106.667-169.387 152.747-256 152.747s-256-45.653-256-152.747zM354.56 277.333c29.44 23.893 101.547 47.787 157.44 47.787s128.427-23.893 157.44-47.787h-314.88z" />
<glyph unicode="&#xe973;" glyph-name="notification_top_menu" d="M512-21.333c-55.467 0-106.667 42.667-110.933 98.133h-268.8c-17.067 0-29.867 12.8-29.867 29.867v42.667c0 8.533 4.267 12.8 8.533 21.333l76.8 76.8v243.2c0 145.067 98.133 268.8 234.667 311.467v21.333c0 25.6 8.533 46.933 25.6 64 17.067 21.333 38.4 29.867 64 29.867v0c51.2 0 89.6-42.667 89.6-93.867v-25.6c136.533-38.4 234.667-166.4 234.667-311.467v-243.2l76.8-76.8c4.267-4.267 8.533-12.8 8.533-21.333v-42.667c0-17.067-12.8-29.867-29.867-29.867h-268.8c-4.267-51.2-55.467-93.867-110.933-93.867zM465.067 64c8.533-17.067 29.867-29.867 46.933-29.867s38.4 12.8 46.933 29.867h-93.867zM157.867 132.267h704v4.267l-76.8 76.8c-4.267 4.267-8.533 12.8-8.533 21.333v256c0 123.733-89.6 234.667-209.067 260.267-12.8 4.267-21.333 12.8-21.333 25.6v46.933c0 21.333-17.067 34.133-34.133 34.133 0 0 0 0 0 0s0 0 0 0c-8.533 0-17.067-4.267-25.6-8.533-8.533-8.533-8.533-17.067-8.533-25.6v-51.2c0-12.8-8.533-25.6-21.333-25.6-123.733-25.6-209.067-136.533-209.067-260.267v-256c0-8.533-4.267-12.8-8.533-21.333l-81.067-76.8z" />
<glyph unicode="&#xe974;" glyph-name="block-24px" d="M512 874.667c-235.52 0-426.667-191.147-426.667-426.667s191.147-426.667 426.667-426.667 426.667 191.147 426.667 426.667-191.147 426.667-426.667 426.667zM170.667 448c0 188.587 152.747 341.333 341.333 341.333 78.933 0 151.467-26.88 209.067-72.107l-478.293-478.293c-45.227 57.6-72.107 130.133-72.107 209.067zM512 106.667c-78.933 0-151.467 26.88-209.067 72.107l478.293 478.293c45.227-57.6 72.107-130.133 72.107-209.067 0-188.587-152.747-341.333-341.333-341.333z" />
<glyph unicode="&#xe975;" glyph-name="inhouse-maintainance-24px" d="M810.667 123.733h102.4v-85.333h-256v256h85.333v-115.2c76.8 64 128 157.867 128 264.533 0 174.933-132.267 315.733-298.667 337.067v85.333c213.333-21.333 384-204.8 384-426.667 0-123.733-59.733-238.933-145.067-315.733zM187.733 443.733c0 106.667 51.2 204.8 128 264.533v-115.2h85.333v256h-256v-85.333h102.4c-89.6-76.8-145.067-192-145.067-320 0-221.867 166.4-405.333 384-426.667v85.333c-170.667 21.333-298.667 166.4-298.667 341.333zM708.267 610.133l-243.2-243.2-119.467 119.467-59.733-59.733 179.2-179.2 302.933 302.933-59.733 59.733z" />
<glyph unicode="&#xe976;" glyph-name="miscellaneous_services-24px-1" d="M604.587 375.040l59.733 103.253c3.84 6.4 2.133 14.507-3.413 19.2l-63.147 49.493c1.28 9.387 2.133 19.2 2.133 29.013s-0.853 19.627-2.133 29.44l63.147 49.493c5.547 4.693 7.253 12.8 3.413 19.2l-59.733 103.253c-3.84 6.4-11.52 8.96-18.347 6.4l-74.24-29.867c-15.36 11.947-32 21.76-50.347 29.44l-11.093 78.933c-1.28 6.827-7.68 12.373-14.933 12.373h-119.467c-7.253 0-13.653-5.547-14.933-12.8l-11.093-78.933c-17.92-7.68-34.987-17.493-50.347-29.44l-74.24 29.867c-6.827 2.56-14.507 0-18.347-6.4l-59.733-103.253c-3.84-6.4-2.133-14.507 3.413-19.2l63.147-49.493c-1.28-9.387-2.133-19.2-2.133-29.013s0.853-19.627 2.133-29.44l-63.147-49.493c-5.547-4.693-7.253-12.8-3.413-19.2l59.733-103.253c3.84-6.4 11.52-8.96 18.347-6.4l74.24 29.867c15.36-11.947 32-21.76 50.347-29.44l11.093-78.933c1.28-6.827 7.68-12.373 14.933-12.373h119.467c7.253 0 13.653 5.547 14.933 12.8l11.093 78.933c17.92 7.68 34.987 17.493 50.347 29.44l74.24-29.867c6.827-2.56 14.507 0 18.347 6.4zM375.893 490.667c-46.933 0-85.333 38.4-85.333 85.333s38.4 85.333 85.333 85.333 85.333-38.4 85.333-85.333c0-46.933-38.4-85.333-85.333-85.333zM935.253 163.413l-40.96 31.573c0.853 5.973 1.707 12.373 1.707 18.773s-0.427 12.8-1.707 18.773l40.533 31.573c3.413 2.987 4.693 8.107 2.133 12.373l-38.4 66.133c-2.133 4.267-7.253 5.547-11.947 4.267l-47.36-19.2c-9.813 7.68-20.48 14.080-32.427 18.773l-7.253 50.347c-0.427 5.12-4.693 8.533-8.96 8.533h-76.373c-4.693 0-8.96-3.413-9.387-8.107l-7.253-50.347c-11.52-5.12-22.613-11.093-32.427-18.773l-47.36 19.2c-4.267 1.707-9.387 0-11.947-4.267l-38.4-66.133c-2.133-4.267-1.707-9.387 2.133-12.373l40.533-31.573c-0.853-5.973-1.28-12.373-1.28-18.773s0.427-12.8 1.28-18.773l-40.533-31.573c-3.413-2.987-4.693-8.107-2.133-12.373l38.4-66.133c2.133-4.267 7.253-5.547 11.947-4.267l47.36 19.2c9.813-7.68 20.48-14.080 32.427-18.773l7.253-50.347c0.853-4.693 4.693-8.107 9.387-8.107h76.373c4.693 0 8.96 3.413 9.387 8.107l7.253 50.347c11.52 5.12 22.613 11.093 32 18.773l47.787-19.2c4.267-1.707 9.387 0 11.947 4.267l38.4 66.133c2.56 3.84 1.28 8.96-2.133 11.947zM752.213 156.587c-31.573 0-57.6 25.6-57.6 57.6s25.6 57.6 57.6 57.6 57.6-25.6 57.6-57.6-26.027-57.6-57.6-57.6z" />
<glyph unicode="&#xe977;" glyph-name="build-24px" d="M964.693 149.76l-387.413 387.413c39.68 99.84 19.2 217.6-61.44 298.667-98.133 98.133-250.88 107.093-359.68 27.733l163.84-164.267-60.587-60.16-163.413 163.413c-79.36-108.373-70.4-261.547 27.733-359.253 79.36-79.36 194.987-100.267 293.973-63.147l388.693-388.693c16.64-16.64 43.52-16.64 60.16 0l98.133 98.133c17.067 16.213 17.067 43.093 0 60.16zM836.693 81.493l-403.627 403.627c-26.027-19.2-55.040-30.72-85.333-34.987-58.027-8.533-119.040 8.96-163.413 53.333-40.533 40.107-59.307 93.867-56.32 146.773l131.84-131.84 180.907 180.907-131.84 131.84c52.907 2.987 106.24-15.787 146.773-55.893 46.080-46.080 63.573-109.653 52.907-168.96-5.12-30.293-17.92-58.453-37.547-83.627l403.2-403.2-37.547-37.973z" />
<glyph unicode="&#xe978;" glyph-name="settings-24px-1" d="M829.013 406.187c1.707 13.653 2.987 27.307 2.987 41.813s-1.28 28.16-2.987 41.813l90.027 70.4c8.107 6.4 10.24 17.92 5.12 27.307l-85.333 147.627c-3.84 6.827-11.093 10.667-18.773 10.667-2.56 0-5.12-0.427-7.253-1.28l-106.24-42.667c-22.187 17.067-46.080 31.147-72.107 41.813l-16.213 113.067c-1.28 10.24-10.24 17.92-20.907 17.92h-170.667c-10.667 0-19.627-7.68-20.907-17.92l-16.213-113.067c-26.027-10.667-49.92-25.173-72.107-41.813l-106.24 42.667c-2.56 0.853-5.12 1.28-7.68 1.28-7.253 0-14.507-3.84-18.347-10.667l-85.333-147.627c-5.547-9.387-2.987-20.907 5.12-27.307l90.027-70.4c-1.707-13.653-2.987-27.733-2.987-41.813s1.28-28.16 2.987-41.813l-90.027-70.4c-8.107-6.4-10.24-17.92-5.12-27.307l85.333-147.627c3.84-6.827 11.093-10.667 18.773-10.667 2.56 0 5.12 0.427 7.253 1.28l106.24 42.667c22.187-17.067 46.080-31.147 72.107-41.813l16.213-113.067c1.28-10.24 10.24-17.92 20.907-17.92h170.667c10.667 0 19.627 7.68 20.907 17.92l16.213 113.067c26.027 10.667 49.92 25.173 72.107 41.813l106.24-42.667c2.56-0.853 5.12-1.28 7.68-1.28 7.253 0 14.507 3.84 18.347 10.667l85.333 147.627c5.12 9.387 2.987 20.907-5.12 27.307l-90.027 70.4zM744.533 479.147c1.707-13.227 2.133-22.187 2.133-31.147s-0.853-18.347-2.133-31.147l-5.973-48.213 37.973-29.867 46.080-35.84-29.867-51.627-54.187 21.76-44.373 17.92-38.4-29.013c-18.347-13.653-35.84-23.893-53.333-31.147l-45.227-18.347-6.827-48.213-8.533-57.6h-59.733l-8.107 57.6-6.827 48.213-45.227 18.347c-18.347 7.68-35.413 17.493-52.48 30.293l-38.827 29.867-45.227-18.347-54.187-21.76-29.867 51.627 46.080 35.84 37.973 29.867-5.973 48.213c-1.28 13.227-2.133 23.040-2.133 31.573s0.853 18.347 2.133 31.147l5.973 48.213-37.973 29.867-46.080 35.84 29.867 51.627 54.187-21.76 44.373-17.92 38.4 29.013c18.347 13.653 35.84 23.893 53.333 31.147l45.227 18.347 6.827 48.213 8.533 57.6h59.307l8.107-57.6 6.827-48.213 45.227-18.347c18.347-7.68 35.413-17.493 52.48-30.293l38.827-29.867 45.227 18.347 54.187 21.76 29.867-51.627-45.653-36.267-37.973-29.867 5.973-48.213zM512 618.667c-94.293 0-170.667-76.373-170.667-170.667s76.373-170.667 170.667-170.667 170.667 76.373 170.667 170.667-76.373 170.667-170.667 170.667zM512 362.667c-46.933 0-85.333 38.4-85.333 85.333s38.4 85.333 85.333 85.333 85.333-38.4 85.333-85.333-38.4-85.333-85.333-85.333z" />
<glyph unicode="&#xe979;" glyph-name="calibrate-24px" d="M725.333 422.4c-132.267 0-238.933-106.667-238.933-238.933s106.667-238.933 238.933-238.933 238.933 106.667 238.933 238.933v0c0 132.267-106.667 238.933-238.933 238.933zM802.133 72.533l-102.4 102.4v153.6h46.933v-132.267l89.6-89.6-34.133-34.133zM772.267 857.6h-153.6c-25.6 76.8-106.667 115.2-183.467 89.6-42.667-12.8-72.533-46.933-89.6-89.6h-149.333c-51.2 0-93.867-42.667-93.867-93.867v-721.067c0-51.2 42.667-93.867 93.867-93.867h294.4c-29.867 25.6-51.2 59.733-68.267 93.867h-226.133v716.8h93.867v-145.067h384v145.067h93.867v-243.2c34.133-4.267 64-12.8 93.867-29.867v273.067c4.267 51.2-38.4 98.133-89.6 98.133v0zM486.4 759.467c-25.6 0-46.933 21.333-46.933 46.933s21.333 46.933 46.933 46.933 46.933-21.333 46.933-46.933c0-25.6-21.333-46.933-46.933-46.933v0z" />
</font>
</defs>
</svg>
