<svg xmlns="http://www.w3.org/2000/svg" width="179" height="179" viewBox="0 0 179 179">
  <g id="Group_1772" data-name="Group 1772" transform="translate(-58 -36)">
    <g id="Group_1412" data-name="Group 1412" transform="translate(-6909.822 -2216.183)">
      <g id="Group_1418" data-name="Group 1418" transform="translate(7048.737 2302.854)">
        <g id="Group_1412-2" data-name="Group 1412" transform="translate(0 4.263)">
          <path id="Path_1370" data-name="Path 1370" d="M7460.219,2546.541c-.637,0-1.31-.03-2.019-.1a25.789,25.789,0,0,1-9.454-2.944,43.753,43.753,0,0,1-11.432-9.04c-14.817-15.852-26.239-10.112-26.353-10.052a1.488,1.488,0,1,1-1.386-2.633,17.047,17.047,0,0,1,8.988-1.312,25.806,25.806,0,0,1,9.479,2.93,43.577,43.577,0,0,1,11.445,9.036c6.122,6.55,12.62,10.365,18.791,11.032a14.409,14.409,0,0,0,7.5-.948,1.488,1.488,0,0,1,1.378,2.636A15.891,15.891,0,0,1,7460.219,2546.541Z" transform="translate(-7408.781 -2520.366)"/>
        </g>
        <g id="Group_1413" data-name="Group 1413" transform="translate(3.413 0)">
          <path id="Path_1371" data-name="Path 1371" d="M7435.551,2528.573a12.008,12.008,0,0,1-2.7-.259,1.488,1.488,0,0,1,.716-2.888,14.554,14.554,0,0,0,7.549-.846c5.861-2.1,11.284-7.347,15.68-15.16a43.769,43.769,0,0,1,8.965-11.49,25.8,25.8,0,0,1,8.488-5.1,16.909,16.909,0,0,1,9.008-.864,1.487,1.487,0,1,1-.723,2.886,14.433,14.433,0,0,0-7.5.857c-5.837,2.11-11.246,7.356-15.643,15.169a43.578,43.578,0,0,1-8.979,11.489,25.807,25.807,0,0,1-8.515,5.092A19.418,19.418,0,0,1,7435.551,2528.573Z" transform="translate(-7431.724 -2491.71)"/>
        </g>
        <g id="Group_1414" data-name="Group 1414" transform="translate(17.322 8.498)" opacity="0.5">
          <path id="Path_1372" data-name="Path 1372" d="M7527.337,2571.45a.818.818,0,0,1-.815-.768l-1.287-20.973a.818.818,0,0,1,1.633-.1l1.286,20.973a.818.818,0,0,1-.767.866Z" transform="translate(-7525.233 -2548.84)"/>
        </g>
        <g id="Group_1415" data-name="Group 1415" transform="translate(7.652 5.536)" opacity="0.5">
          <path id="Path_1373" data-name="Path 1373" d="M7462.8,2559.308a.818.818,0,0,1-.815-.768l-1.764-28.744a.818.818,0,0,1,1.633-.1l1.763,28.745a.818.818,0,0,1-.767.866Z" transform="translate(-7460.22 -2528.927)"/>
        </g>
        <g id="Group_1416" data-name="Group 1416" transform="translate(38.901 5.826)" opacity="0.5">
          <path id="Path_1374" data-name="Path 1374" d="M7672.449,2551.205a.818.818,0,0,1-.815-.76l-1.33-18.69a.818.818,0,0,1,1.633-.116l1.329,18.69a.818.818,0,0,1-.758.874Z" transform="translate(-7670.302 -2530.879)"/>
        </g>
        <g id="Group_1417" data-name="Group 1417" transform="translate(48.095 1.017)" opacity="0.5">
          <path id="Path_1375" data-name="Path 1375" d="M7734.733,2526.643a.818.818,0,0,1-.815-.762l-1.806-26.461a.818.818,0,1,1,1.632-.112l1.806,26.461a.818.818,0,0,1-.761.872Z" transform="translate(-7732.11 -2498.545)"/>
        </g>
      </g>
      <g id="Group_1419" data-name="Group 1419" transform="translate(7027.223 2269.853)">
        <path id="Path_1376" data-name="Path 1376" d="M7314.527,2370.607a50.377,50.377,0,1,1,35.623-14.755A50.046,50.046,0,0,1,7314.527,2370.607Zm0-97.779a47.4,47.4,0,1,0,47.4,47.4A47.455,47.455,0,0,0,7314.527,2272.828Z" transform="translate(-7264.15 -2269.853)" fill="#136858"/>
      </g>
      <g id="Group_1420" data-name="Group 1420" transform="translate(7025.954 2353.677)">
        <line id="Line_705" data-name="Line 705" x1="13.27" y2="13.27" transform="translate(1.052 1.052)" fill="#136858"/>
        <rect id="Rectangle_963" data-name="Rectangle 963" width="18.767" height="2.975" transform="translate(0 13.27) rotate(-45)" fill="#136858"/>
      </g>
      <g id="Group_1421" data-name="Group 1421" transform="translate(6985.822 2358.973)">
        <rect id="Rectangle_964" data-name="Rectangle 964" width="21.286" height="49.721" rx="4" transform="translate(35.158 0) rotate(45)" fill="#136858"/>
        <path id="Path_1377" data-name="Path 1377" d="M7003.917,2921.713a6.342,6.342,0,0,1-4.5-1.86l-8.159-8.159a6.362,6.362,0,0,1,0-9l28.265-28.265a6.369,6.369,0,0,1,9,0l8.159,8.159a6.37,6.37,0,0,1,0,9l-28.265,28.265A6.342,6.342,0,0,1,7003.917,2921.713Zm-2.4-3.964a3.39,3.39,0,0,0,4.789,0l28.265-28.265a3.391,3.391,0,0,0,0-4.79l-8.159-8.159a3.391,3.391,0,0,0-4.79,0l-28.265,28.265a3.387,3.387,0,0,0,0,4.79Z" transform="translate(-6988.864 -2872.038)" fill="#136858"/>
      </g>
    </g>
    <rect id="Rectangle_1065" data-name="Rectangle 1065" width="179" height="179" transform="translate(58 36)" fill="none"/>
  </g>
</svg>
