<svg xmlns="http://www.w3.org/2000/svg" width="179" height="179" viewBox="0 0 179 179">
  <g id="Group_1774" data-name="Group 1774" transform="translate(-59 -37)">
    <g id="Group_1471" data-name="Group 1471" transform="translate(-6684.15 647.286)">
      <g id="Group_1461" data-name="Group 1461" transform="translate(6822.673 -561.438)">
        <g id="Group_1459" data-name="Group 1459" transform="translate(19.945 0)">
          <path id="Path_1396" data-name="Path 1396" d="M7337.774-349.347a10.061,10.061,0,0,1-10.049-10.049,10.061,10.061,0,0,1,10.049-10.049,10.06,10.06,0,0,1,10.049,10.049A10.06,10.06,0,0,1,7337.774-349.347Zm0-17.853a7.813,7.813,0,0,0-7.8,7.8,7.813,7.813,0,0,0,7.8,7.8,7.813,7.813,0,0,0,7.8-7.8A7.812,7.812,0,0,0,7337.774-367.2Z" transform="translate(-7327.725 369.446)" fill="#007a6c"/>
        </g>
        <g id="Group_1460" data-name="Group 1460" transform="translate(0 21.005)">
          <path id="Path_1397" data-name="Path 1397" d="M7204.058-165.245a2.976,2.976,0,0,1-.81-.112c-1.9-.538-3.111-2.92-2.707-5.311.368-2.182.956-5.138,1.636-8.56,1.151-5.792,2.583-13,3.416-18.922,1.281-9.126.5-10.844.232-11.153-.187-.213-1.12-.941-5.328-1.341-2.724-.259-5.8-.288-7.838-.307-.721-.007-1.343-.012-1.781-.027-3.733-.123-5.172-1.874-5.269-3.336-.1-1.551,1.187-3.443,5.12-4.1,6.807-1.141,24.534-1.351,25.286-1.359h.047c.764.008,18.491.218,25.3,1.359,3.934.659,5.225,2.552,5.121,4.1-.1,1.462-1.536,3.213-5.27,3.336-.439.014-1.061.02-1.781.027-2.036.019-5.115.048-7.838.307-4.208.4-5.142,1.128-5.328,1.341-.27.309-1.05,2.027.233,11.154.832,5.923,2.264,13.131,3.415,18.923.68,3.422,1.268,6.377,1.636,8.559.405,2.391-.81,4.773-2.707,5.311-.934.265-3.293.415-5.037-3.891-.8-1.98-1.482-4.345-2.2-6.848-1.295-4.5-2.633-9.151-4.644-11.279a3.2,3.2,0,0,0-.913-.583,3.186,3.186,0,0,0-.913.583c-2.011,2.128-3.35,6.78-4.644,11.279-.722,2.5-1.4,4.869-2.2,6.848C7206.928-165.9,7205.2-165.245,7204.058-165.245Zm11.987-25.139.408.159a6.1,6.1,0,0,1,2.138,1.308c2.385,2.525,3.8,7.443,5.169,12.2.7,2.446,1.369,4.756,2.126,6.626.715,1.764,1.635,2.775,2.344,2.574s1.329-1.453,1.105-2.776c-.364-2.15-.948-5.091-1.625-8.5-1.156-5.819-2.595-13.062-3.437-19.048-1.343-9.562-.6-11.908.3-12.942,1.668-1.913,6.914-2.343,14.837-2.417.707-.007,1.316-.012,1.729-.026,2.265-.075,3.079-.884,3.1-1.241s-.759-1.321-3.251-1.739c-6.636-1.113-24.757-1.327-24.939-1.329h-.022c-.169,0-18.292.216-24.927,1.328-2.491.418-3.276,1.369-3.251,1.739s.838,1.167,3.1,1.241c.413.013,1.022.019,1.728.026,7.924.074,13.169.5,14.838,2.417.9,1.034,1.642,3.38.3,12.941-.84,5.986-2.279,13.228-3.436,19.047-.678,3.405-1.262,6.346-1.625,8.5-.224,1.324.41,2.579,1.105,2.776s1.629-.809,2.344-2.574c.758-1.871,1.422-4.181,2.125-6.626,1.369-4.757,2.785-9.675,5.17-12.2a6.1,6.1,0,0,1,2.138-1.308Z" transform="translate(-7185.604 219.776)" fill="#007a6c"/>
        </g>
      </g>
      <g id="Group_1469" data-name="Group 1469" transform="translate(6781.105 -526.99)">
        <g id="Group_1462" data-name="Group 1462" transform="translate(9.367 1.757)">
          <path id="Path_1398" data-name="Path 1398" d="M6984.906-76.585c-8,0-20.415-6.943-24.332-10.624a14.053,14.053,0,0,1-.615-19.841,14.053,14.053,0,0,1,19.841-.615c5.026,4.724,16.28,23.08,10.549,29.177A7.2,7.2,0,0,1,6984.906-76.585Zm-14.715-32.778a11.9,11.9,0,0,0-8.7,3.755,11.944,11.944,0,0,0,.523,16.865c2.344,2.2,7.876,5.647,13.918,7.969,6.384,2.454,11.079,2.762,12.88.844s1.2-6.584-1.64-12.8c-2.692-5.886-6.473-11.2-8.816-13.4A11.89,11.89,0,0,0,6970.191-109.363Z" transform="translate(-6956.158 111.467)"/>
        </g>
        <g id="Group_1463" data-name="Group 1463" transform="translate(14.135 20.699)">
          <path id="Path_1399" data-name="Path 1399" d="M7009.913,37.79A6.168,6.168,0,1,1,7008,32.657" transform="translate(-6996.563 -29.935)" fill="#fff"/>
          <path id="Path_1400" data-name="Path 1400" d="M6997.346,37.945a7.22,7.22,0,1,1,4.95-12.481A1.053,1.053,0,1,1,7000.854,27a5.114,5.114,0,1,0,.225,7.23,5.066,5.066,0,0,0,1.36-2.972,1.053,1.053,0,0,1,2.094.217,7.222,7.222,0,0,1-6.958,6.469C6997.5,37.943,6997.422,37.945,6997.346,37.945Z" transform="translate(-6990.135 -23.508)"/>
        </g>
        <g id="Group_1464" data-name="Group 1464" transform="translate(27.941 6.01)">
          <path id="Path_1401" data-name="Path 1401" d="M7103.171-61.437a6.142,6.142,0,0,0,3.476-1.859,6.167,6.167,0,0,0-.27-8.718,6.168,6.168,0,0,0-8.718.27,6.168,6.168,0,0,0,.271,8.718" transform="translate(-7094.937 74.736)" fill="#fff"/>
          <path id="Path_1402" data-name="Path 1402" d="M7096.744-66.811a1.053,1.053,0,0,1-1.037-.88,1.053,1.053,0,0,1,.865-1.211,5.066,5.066,0,0,0,2.881-1.542,5.12,5.12,0,0,0-.224-7.23,5.12,5.12,0,0,0-7.229.224,5.121,5.121,0,0,0,.224,7.23,1.052,1.052,0,0,1,.046,1.488,1.053,1.053,0,0,1-1.488.046,7.229,7.229,0,0,1-.316-10.206,7.229,7.229,0,0,1,10.206-.316A7.227,7.227,0,0,1,7100.988-69a7.155,7.155,0,0,1-4.069,2.177A1.057,1.057,0,0,1,7096.744-66.811Z" transform="translate(-7088.511 81.163)"/>
        </g>
        <g id="Group_1465" data-name="Group 1465" transform="translate(32.592 27.872)">
          <circle id="Ellipse_132" data-name="Ellipse 132" cx="1.533" cy="1.533" r="1.533"/>
        </g>
        <g id="Group_1466" data-name="Group 1466" transform="translate(36.32 24.688)">
          <circle id="Ellipse_133" data-name="Ellipse 133" cx="1.533" cy="1.533" r="1.533" transform="translate(0 0)"/>
        </g>
        <g id="Group_1467" data-name="Group 1467" transform="translate(38.472 29.432)">
          <ellipse id="Ellipse_134" data-name="Ellipse 134" cx="3.226" cy="1.533" rx="3.226" ry="1.533" transform="translate(0 4.9) rotate(-49.415)"/>
        </g>
        <g id="Group_1468" data-name="Group 1468" transform="translate(0 0)">
          <path id="Path_1403" data-name="Path 1403" d="M6903.6-116.88a1.052,1.052,0,0,1-.793-.36c-2.738-3.132-5.333-4.7-7.726-4.638a5.242,5.242,0,0,0-3.784,1.79,1.055,1.055,0,0,1-1.476.174,1.049,1.049,0,0,1-.183-1.47,7.4,7.4,0,0,1,5.348-2.6c3.061-.09,6.221,1.714,9.4,5.356a1.051,1.051,0,0,1-.1,1.485A1.048,1.048,0,0,1,6903.6-116.88Z" transform="translate(-6889.415 123.985)"/>
        </g>
      </g>
      <g id="Group_1470" data-name="Group 1470" transform="translate(6763.424 -592.781)">
        <path id="Path_1404" data-name="Path 1404" d="M6832.534-454.56a68.681,68.681,0,0,1-26.9-5.431,68.891,68.891,0,0,1-21.967-14.811,68.883,68.883,0,0,1-14.81-21.967,68.672,68.672,0,0,1-5.432-26.9,68.672,68.672,0,0,1,5.432-26.9,68.884,68.884,0,0,1,14.81-21.967,68.887,68.887,0,0,1,21.967-14.81,68.68,68.68,0,0,1,26.9-5.432,68.68,68.68,0,0,1,26.9,5.432,68.879,68.879,0,0,1,21.967,14.81,68.862,68.862,0,0,1,14.811,21.967,68.672,68.672,0,0,1,5.432,26.9,68.672,68.672,0,0,1-5.432,26.9A68.86,68.86,0,0,1,6881.4-474.8a68.883,68.883,0,0,1-21.967,14.811A68.681,68.681,0,0,1,6832.534-454.56Zm0-135.695a66.659,66.659,0,0,0-66.584,66.584,66.659,66.659,0,0,0,66.584,66.584,66.66,66.66,0,0,0,66.584-66.584A66.66,66.66,0,0,0,6832.534-590.255Z" transform="translate(-6763.424 592.781)" fill="#007a6c"/>
      </g>
    </g>
    <rect id="Rectangle_1067" data-name="Rectangle 1067" width="179" height="179" transform="translate(59 37)" fill="none"/>
  </g>
</svg>
