<svg xmlns="http://www.w3.org/2000/svg" width="179" height="179" viewBox="0 0 179 179">
  <g id="Group_1778" data-name="Group 1778" transform="translate(-60 -37)">
    <g id="Group_1596" data-name="Group 1596" transform="translate(-4962.433 5557.127)">
      <g id="Group_1581" data-name="Group 1581" transform="translate(5045.433 -5483.441)">
        <path id="Path_1501" data-name="Path 1501" d="M5104.041-5369.127h-56.969a1.639,1.639,0,0,1-1.639-1.638V-5481.8a1.638,1.638,0,0,1,1.639-1.637h56.969a1.637,1.637,0,0,1,1.638,1.637v111.038A1.638,1.638,0,0,1,5104.041-5369.127Zm-55.332-3.276H5102.4v-107.762h-53.694Z" transform="translate(-5045.433 5483.441)"/>
      </g>
      <g id="Group_1582" data-name="Group 1582" transform="translate(5115.958 -5447.161)">
        <path id="Path_1502" data-name="Path 1502" d="M5537.515-5183.888h-59.828a1.638,1.638,0,0,1-1.638-1.638v-74.758a1.637,1.637,0,0,1,1.638-1.637h59.828a1.637,1.637,0,0,1,1.638,1.637v74.758A1.638,1.638,0,0,1,5537.515-5183.888Zm-58.19-3.276h56.553v-71.482h-56.553Z" transform="translate(-5476.049 5261.922)" fill="#007a6c"/>
      </g>
      <g id="Group_1583" data-name="Group 1583" transform="translate(5056.222 -5471.771)">
        <path id="Path_1503" data-name="Path 1503" d="M5125.572-5396.7h-13.035a1.228,1.228,0,0,1-1.229-1.229v-13.034a1.228,1.228,0,0,1,1.229-1.229h13.035a1.228,1.228,0,0,1,1.228,1.229v13.034A1.228,1.228,0,0,1,5125.572-5396.7Zm-11.806-2.457h10.577v-10.578h-10.577Z" transform="translate(-5111.309 5412.189)" fill="#007a6c"/>
      </g>
      <g id="Group_1584" data-name="Group 1584" transform="translate(5079.33 -5471.771)">
        <path id="Path_1504" data-name="Path 1504" d="M5266.664-5396.7H5253.63a1.229,1.229,0,0,1-1.229-1.229v-13.034a1.229,1.229,0,0,1,1.229-1.229h13.034a1.229,1.229,0,0,1,1.229,1.229v13.034A1.229,1.229,0,0,1,5266.664-5396.7Zm-11.806-2.457h10.578v-10.578h-10.578Z" transform="translate(-5252.401 5412.189)" fill="#007a6c"/>
      </g>
      <g id="Group_1585" data-name="Group 1585" transform="translate(5056.222 -5448.738)">
        <path id="Path_1505" data-name="Path 1505" d="M5125.572-5256.061h-13.035a1.229,1.229,0,0,1-1.229-1.229v-13.034a1.228,1.228,0,0,1,1.229-1.229h13.035a1.228,1.228,0,0,1,1.228,1.229v13.034A1.228,1.228,0,0,1,5125.572-5256.061Zm-11.806-2.457h10.577v-10.578h-10.577Z" transform="translate(-5111.309 5271.552)" fill="#007a6c"/>
      </g>
      <g id="Group_1586" data-name="Group 1586" transform="translate(5079.33 -5448.738)">
        <path id="Path_1506" data-name="Path 1506" d="M5266.664-5256.061H5253.63a1.229,1.229,0,0,1-1.229-1.229v-13.034a1.229,1.229,0,0,1,1.229-1.229h13.034a1.229,1.229,0,0,1,1.229,1.229v13.034A1.229,1.229,0,0,1,5266.664-5256.061Zm-11.806-2.457h10.578v-10.578h-10.578Z" transform="translate(-5252.401 5271.552)" fill="#007a6c"/>
      </g>
      <g id="Group_1587" data-name="Group 1587" transform="translate(5128.706 -5433.966)">
        <path id="Path_1507" data-name="Path 1507" d="M5568.146-5165.862h-13.035a1.228,1.228,0,0,1-1.228-1.229v-13.034a1.228,1.228,0,0,1,1.228-1.229h13.035a1.228,1.228,0,0,1,1.228,1.229v13.034A1.228,1.228,0,0,1,5568.146-5165.862Zm-11.807-2.457h10.578V-5178.9H5556.34Z" transform="translate(-5553.884 5181.353)"/>
      </g>
      <g id="Group_1588" data-name="Group 1588" transform="translate(5151.813 -5433.966)">
        <path id="Path_1508" data-name="Path 1508" d="M5709.241-5165.862h-13.034a1.228,1.228,0,0,1-1.229-1.229v-13.034a1.228,1.228,0,0,1,1.229-1.229h13.034a1.228,1.228,0,0,1,1.229,1.229v13.034A1.228,1.228,0,0,1,5709.241-5165.862Zm-11.806-2.457h10.577V-5178.9h-10.577Z" transform="translate(-5694.978 5181.353)"/>
      </g>
      <g id="Group_1589" data-name="Group 1589" transform="translate(5128.706 -5410.933)">
        <path id="Path_1509" data-name="Path 1509" d="M5568.146-5025.225h-13.035a1.228,1.228,0,0,1-1.228-1.229v-13.034a1.228,1.228,0,0,1,1.228-1.229h13.035a1.228,1.228,0,0,1,1.228,1.229v13.034A1.228,1.228,0,0,1,5568.146-5025.225Zm-11.807-2.457h10.578v-10.578H5556.34Z" transform="translate(-5553.884 5040.716)" fill="#007a6c"/>
      </g>
      <g id="Group_1590" data-name="Group 1590" transform="translate(5151.813 -5410.933)">
        <path id="Path_1510" data-name="Path 1510" d="M5709.241-5025.225h-13.034a1.228,1.228,0,0,1-1.229-1.229v-13.034a1.228,1.228,0,0,1,1.229-1.229h13.034a1.228,1.228,0,0,1,1.229,1.229v13.034A1.228,1.228,0,0,1,5709.241-5025.225Zm-11.806-2.457h10.577v-10.578h-10.577Z" transform="translate(-5694.978 5040.716)" fill="#007a6c"/>
      </g>
      <g id="Group_1591" data-name="Group 1591" transform="translate(5128.706 -5385.028)">
        <path id="Path_1511" data-name="Path 1511" d="M5591.254-4867.055h-36.142a1.228,1.228,0,0,1-1.228-1.228v-13.035a1.227,1.227,0,0,1,1.228-1.228h36.142a1.228,1.228,0,0,1,1.228,1.228v13.035A1.228,1.228,0,0,1,5591.254-4867.055Zm-34.914-2.457h33.686v-10.578H5556.34Z" transform="translate(-5553.884 4882.545)" fill="#007a6c"/>
      </g>
      <g id="Group_1592" data-name="Group 1592" transform="translate(5056.222 -5425.705)">
        <path id="Path_1512" data-name="Path 1512" d="M5125.572-5115.425h-13.035a1.228,1.228,0,0,1-1.229-1.228v-13.035a1.228,1.228,0,0,1,1.229-1.228h13.035a1.228,1.228,0,0,1,1.228,1.228v13.035A1.228,1.228,0,0,1,5125.572-5115.425Zm-11.806-2.457h10.577v-10.578h-10.577Z" transform="translate(-5111.309 5130.916)" fill="#007a6c"/>
      </g>
      <g id="Group_1593" data-name="Group 1593" transform="translate(5079.33 -5425.705)">
        <path id="Path_1513" data-name="Path 1513" d="M5266.664-5115.425H5253.63a1.229,1.229,0,0,1-1.229-1.228v-13.035a1.228,1.228,0,0,1,1.229-1.228h13.034a1.228,1.228,0,0,1,1.229,1.228v13.035A1.229,1.229,0,0,1,5266.664-5115.425Zm-11.806-2.457h10.578v-10.578h-10.578Z" transform="translate(-5252.401 5130.916)" fill="#007a6c"/>
      </g>
      <g id="Group_1594" data-name="Group 1594" transform="translate(5056.222 -5402.672)">
        <path id="Path_1514" data-name="Path 1514" d="M5125.572-4957.144h-13.035a1.228,1.228,0,0,1-1.229-1.228v-30.679a1.228,1.228,0,0,1,1.229-1.228h13.035a1.228,1.228,0,0,1,1.228,1.228v30.679A1.228,1.228,0,0,1,5125.572-4957.144Zm-11.806-2.456h10.577v-28.222h-10.577Z" transform="translate(-5111.309 4990.279)"/>
      </g>
      <g id="Group_1595" data-name="Group 1595" transform="translate(5079.33 -5402.672)">
        <path id="Path_1515" data-name="Path 1515" d="M5266.664-4957.144H5253.63a1.229,1.229,0,0,1-1.229-1.228v-30.679a1.229,1.229,0,0,1,1.229-1.228h13.034a1.229,1.229,0,0,1,1.229,1.228v30.679A1.229,1.229,0,0,1,5266.664-4957.144Zm-11.806-2.456h10.578v-28.222h-10.578Z" transform="translate(-5252.401 4990.279)"/>
      </g>
    </g>
    <g id="Group_1777" data-name="Group 1777" transform="translate(2 1)">
      <rect id="Rectangle_1064" data-name="Rectangle 1064" width="179" height="179" transform="translate(58 36)" fill="none"/>
    </g>
  </g>
</svg>
