<svg xmlns="http://www.w3.org/2000/svg" width="179" height="179" viewBox="0 0 179 179">
  <g id="Group_1773" data-name="Group 1773" transform="translate(-60 -37)">
    <g id="Group_1392" data-name="Group 1392" transform="translate(-6949.174 -933.853)">
      <g id="Group_1401" data-name="Group 1401" transform="translate(7030.529 989.207)">
        <g id="Group_1392-2" data-name="Group 1392" transform="translate(11.313 11.313)">
          <path id="Path_1355" data-name="Path 1355" d="M7163.011,1178.971a57.111,57.111,0,1,1,22.3-4.5A56.918,56.918,0,0,1,7163.011,1178.971Zm0-111.557a54.274,54.274,0,1,0,54.273,54.274A54.335,54.335,0,0,0,7163.011,1067.414Z" transform="translate(-7105.729 -1064.405)" fill="#136858"/>
        </g>
        <g id="Group_1393" data-name="Group 1393" transform="translate(58.767 0)">
          <path id="Path_1356" data-name="Path 1356" d="M7439.551,993.42h-16.3a2.106,2.106,0,0,1,0-4.213h16.3a2.106,2.106,0,0,1,0,4.213Z" transform="translate(-7421.146 -989.207)" fill="#136858"/>
        </g>
        <g id="Group_1394" data-name="Group 1394" transform="translate(57.914 132.98)">
          <path id="Path_1357" data-name="Path 1357" d="M7433.881,1877.32h-16.3a2.106,2.106,0,0,1,0-4.212h16.3a2.106,2.106,0,0,1,0,4.212Z" transform="translate(-7415.476 -1873.108)" fill="#136858"/>
        </g>
        <g id="Group_1395" data-name="Group 1395" transform="translate(132.98 58.767)">
          <path id="Path_1358" data-name="Path 1358" d="M7916.537,1400.334a2.106,2.106,0,0,1-2.106-2.106v-16.3a2.106,2.106,0,1,1,4.212,0v16.3A2.106,2.106,0,0,1,7916.537,1400.334Z" transform="translate(-7914.431 -1379.822)" fill="#136858"/>
        </g>
        <g id="Group_1396" data-name="Group 1396" transform="translate(0 57.914)">
          <path id="Path_1359" data-name="Path 1359" d="M7032.635,1394.664a2.106,2.106,0,0,1-2.106-2.106v-16.3a2.106,2.106,0,1,1,4.212,0v16.3A2.105,2.105,0,0,1,7032.635,1394.664Z" transform="translate(-7030.529 -1374.152)" fill="#136858"/>
        </g>
        <g id="Group_1397" data-name="Group 1397" transform="translate(108.044 14.013)">
          <path id="Path_1360" data-name="Path 1360" d="M7762.318,1098.09a2.1,2.1,0,0,1-1.49-.617l-11.525-11.526a2.106,2.106,0,0,1,2.979-2.979l11.524,11.526a2.106,2.106,0,0,1-1.489,3.6Z" transform="translate(-7748.686 -1082.352)" fill="#136858"/>
        </g>
        <g id="Group_1398" data-name="Group 1398" transform="translate(13.41 107.441)">
          <path id="Path_1361" data-name="Path 1361" d="M7133.3,1719.094a2.1,2.1,0,0,1-1.49-.617l-11.525-11.525a2.106,2.106,0,0,1,2.979-2.979l11.525,11.525a2.106,2.106,0,0,1-1.49,3.6Z" transform="translate(-7119.665 -1703.356)" fill="#136858"/>
        </g>
        <g id="Group_1399" data-name="Group 1399" transform="translate(107.441 108.044)">
          <path id="Path_1362" data-name="Path 1362" d="M7746.785,1723.1a2.106,2.106,0,0,1-1.49-3.6l11.526-11.525a2.106,2.106,0,0,1,2.979,2.979l-11.526,11.526A2.1,2.1,0,0,1,7746.785,1723.1Z" transform="translate(-7744.678 -1707.365)" fill="#136858"/>
        </g>
        <g id="Group_1400" data-name="Group 1400" transform="translate(14.013 13.41)">
          <path id="Path_1363" data-name="Path 1363" d="M7125.78,1094.081a2.106,2.106,0,0,1-1.49-3.6l11.526-11.526a2.106,2.106,0,0,1,2.979,2.979l-11.525,11.526A2.1,2.1,0,0,1,7125.78,1094.081Z" transform="translate(-7123.674 -1078.344)" fill="#136858"/>
        </g>
      </g>
      <g id="Group_1402" data-name="Group 1402" transform="translate(7066.077 1034.851)">
        <path id="Path_1364" data-name="Path 1364" d="M7268.32,1336.964a1.506,1.506,0,0,1-1.49-1.722c.029-.195.76-4.823,5.229-9.852a31.927,31.927,0,0,1,9.85-7.315,54.126,54.126,0,0,1,17.454-4.836c11.24-1.351,19.977-5.14,25.264-10.958a18.3,18.3,0,0,0,4.636-8.41,1.5,1.5,0,0,1,2.976.449c-.029.193-.756,4.8-5.224,9.806a31.876,31.876,0,0,1-9.845,7.28,54.36,54.36,0,0,1-17.448,4.82c-11.241,1.351-19.979,5.156-25.271,11a18.464,18.464,0,0,0-4.645,8.46A1.509,1.509,0,0,1,7268.32,1336.964Z" transform="translate(-7266.813 -1292.599)"/>
      </g>
      <g id="Group_1403" data-name="Group 1403" transform="translate(7093.574 1018.747)">
        <path id="Path_1365" data-name="Path 1365" d="M7454.532,1263.4a1.5,1.5,0,0,1-.968-2.657,18.466,18.466,0,0,0,4.82-8.361c2.252-7.559.968-17-3.713-27.312a54.383,54.383,0,0,1-4.937-17.416,31.909,31.909,0,0,1,1.111-12.193c1.96-6.418,5.52-9.43,5.671-9.555a1.5,1.5,0,0,1,1.922,2.315,18.319,18.319,0,0,0-4.776,8.324c-2.228,7.539-.931,16.973,3.749,27.282a54.134,54.134,0,0,1,4.926,17.428,31.9,31.9,0,0,1-1.139,12.215c-1.979,6.431-5.555,9.458-5.706,9.584A1.5,1.5,0,0,1,7454.532,1263.4Z" transform="translate(-7449.582 -1185.558)"/>
      </g>
      <g id="Group_1404" data-name="Group 1404" transform="translate(7081.406 1061.812)" opacity="0.5">
        <path id="Path_1366" data-name="Path 1366" d="M7391.636,1487.654a.821.821,0,0,1-.447-.131l-22.106-14.194a.828.828,0,0,1,.9-1.392l22.105,14.194a.827.827,0,0,1-.447,1.524Z" transform="translate(-7368.703 -1471.805)"/>
      </g>
      <g id="Group_1405" data-name="Group 1405" transform="translate(7071.274 1069.379)" opacity="0.5">
        <path id="Path_1367" data-name="Path 1367" d="M7332.486,1543.209a.822.822,0,0,1-.446-.131l-30.3-19.454a.827.827,0,0,1,.894-1.393l30.3,19.454a.828.828,0,0,1-.448,1.524Z" transform="translate(-7301.362 -1522.101)"/>
      </g>
      <g id="Group_1406" data-name="Group 1406" transform="translate(7094.649 1038.071)" opacity="0.5">
        <path id="Path_1368" data-name="Path 1368" d="M7477.393,1328.121a.822.822,0,0,1-.439-.127l-19.834-12.464a.827.827,0,1,1,.88-1.4l19.835,12.464a.828.828,0,0,1-.441,1.528Z" transform="translate(-7456.731 -1314.001)"/>
      </g>
      <g id="Group_1407" data-name="Group 1407" transform="translate(7096.589 1025.245)" opacity="0.5">
        <path id="Path_1369" data-name="Path 1369" d="M7498.478,1248.124a.822.822,0,0,1-.441-.129l-28.027-17.724a.828.828,0,0,1,.885-1.4l28.026,17.724a.828.828,0,0,1-.443,1.527Z" transform="translate(-7469.625 -1228.745)"/>
      </g>
      <g id="Group_1408" data-name="Group 1408" transform="translate(7133.915 1057.045)" opacity="0.5">
        <circle id="Ellipse_128" data-name="Ellipse 128" cx="5.594" cy="5.594" r="5.594" transform="translate(0 0)"/>
      </g>
      <g id="Group_1409" data-name="Group 1409" transform="translate(7119.495 1069.309)" opacity="0.5">
        <circle id="Ellipse_129" data-name="Ellipse 129" cx="3.956" cy="3.956" r="3.956" transform="translate(0 0)"/>
      </g>
      <g id="Group_1410" data-name="Group 1410" transform="translate(7070.343 1034.943)" opacity="0.5">
        <circle id="Ellipse_130" data-name="Ellipse 130" cx="3.956" cy="3.956" r="3.956" transform="translate(0 0)"/>
      </g>
      <g id="Group_1411" data-name="Group 1411" transform="translate(7055.507 1046.164)" opacity="0.5">
        <circle id="Ellipse_131" data-name="Ellipse 131" cx="5.594" cy="5.594" r="5.594" transform="translate(0 0)"/>
      </g>
    </g>
    <rect id="Rectangle_1066" data-name="Rectangle 1066" width="179" height="179" transform="translate(60 37)" fill="none"/>
  </g>
</svg>
