<svg xmlns="http://www.w3.org/2000/svg" width="179" height="179" viewBox="0 0 179 179">
  <g id="Group_1776" data-name="Group 1776" transform="translate(-58 -36)">
    <g id="Group_1624" data-name="Group 1624" transform="translate(-7305.938 5844.109)">
      <g id="Group_1611" data-name="Group 1611" transform="translate(7403.777 -5679.47)">
        <path id="Path_1529" data-name="Path 1529" d="M7568.865-5104.292H7472.1a2.868,2.868,0,0,1-3.086-2.582s1.672-6.079,1.672-8.364c0-1.825-1.672-8.076-1.672-8.076a2.868,2.868,0,0,1,3.086-2.582h96.762c1.7,0,2.58,1.238,3.086,2.582.948,2.521,2.473,5.952,2.473,8.036a23.314,23.314,0,0,1-2.473,8.4C7571.257-5105.606,7570.569-5104.292,7568.865-5104.292Z" transform="translate(-7467.639 5127.273)" fill="#007a6c"/>
        <path id="Path_1530" data-name="Path 1530" d="M7560.245-5111.533h-96.761a4.241,4.241,0,0,1-4.465-3.961v-.186l.049-.18a48.521,48.521,0,0,0,1.623-8,54.254,54.254,0,0,0-1.625-7.719l-.047-.175v-.181a4.241,4.241,0,0,1,4.465-3.96h96.761c1.4,0,3.3.6,4.378,3.475.167.445.353.918.549,1.42.942,2.405,2.011,5.133,2.011,7.1a24.636,24.636,0,0,1-2.642,9.066l-.039.07C7563.8-5113.476,7562.735-5111.533,7560.245-5111.533Zm-98.456-3.821a1.632,1.632,0,0,0,1.695,1.062h96.761c.782,0,1.125-.492,1.838-1.794l.039-.071a22.265,22.265,0,0,0,2.3-7.74c0-1.448-1.01-4.025-1.822-6.1-.2-.509-.389-.991-.562-1.454-.559-1.487-1.222-1.687-1.8-1.687h-96.761a1.631,1.631,0,0,0-1.7,1.065c.333,1.259,1.662,6.4,1.662,8.212C7463.45-5121.636,7462.127-5116.6,7461.789-5115.354Z" transform="translate(-7459.019 5135.894)" fill="#007a6c"/>
      </g>
      <g id="Group_1612" data-name="Group 1612" transform="translate(7394.938 -5712.778)">
        <path id="Path_1531" data-name="Path 1531" d="M7504.538-5348.839H7399.663a4.6,4.6,0,0,1-4.724-4.459v-.17l.041-.165c.493-1.973,1.771-7.55,1.771-9.646a72.362,72.362,0,0,0-1.773-9.312l-.039-.16v-.166a4.6,4.6,0,0,1,4.724-4.46h104.875c1.5,0,3.517.7,4.65,4.014.182.533.384,1.1.6,1.7,1.011,2.84,2.157,6.059,2.157,8.337a31.157,31.157,0,0,1-2.824,10.643l-.042.083C7508.287-5351.013,7507.206-5348.839,7504.538-5348.839Zm-106.834-4.318a1.878,1.878,0,0,0,1.959,1.56h104.875c.868,0,1.3-.68,2.068-2.231l.042-.084a28.6,28.6,0,0,0,2.534-9.414c0-1.8-1.106-4.913-2-7.412-.216-.608-.421-1.182-.609-1.732-.733-2.147-1.649-2.147-2.04-2.147H7399.663a1.879,1.879,0,0,0-1.96,1.563c.326,1.354,1.807,7.626,1.807,9.775C7399.51-5360.642,7398-5354.367,7397.7-5353.158Z" transform="translate(-7394.939 5377.377)" fill="#007a6c"/>
      </g>
      <g id="Group_1613" data-name="Group 1613" transform="translate(7394.938 -5766.442)">
        <path id="Path_1532" data-name="Path 1532" d="M7504.538-5737.9H7399.663a4.6,4.6,0,0,1-4.724-4.46v-.17l.041-.165c.493-1.972,1.771-7.55,1.771-9.647a72.387,72.387,0,0,0-1.773-9.311l-.039-.161v-.165a4.6,4.6,0,0,1,4.724-4.459h104.875c1.5,0,3.517.7,4.65,4.014.182.534.384,1.1.6,1.7,1.011,2.839,2.157,6.059,2.157,8.337a31.157,31.157,0,0,1-2.824,10.643l-.042.084C7508.287-5740.078,7507.206-5737.9,7504.538-5737.9Zm-106.834-4.319a1.879,1.879,0,0,0,1.959,1.56h104.875c.868,0,1.3-.68,2.068-2.23l.042-.085a28.6,28.6,0,0,0,2.534-9.413c0-1.8-1.106-4.912-2-7.412-.216-.608-.421-1.182-.609-1.732-.733-2.146-1.649-2.146-2.04-2.146H7399.663a1.879,1.879,0,0,0-1.96,1.563c.326,1.354,1.807,7.626,1.807,9.774C7399.51-5749.707,7398-5743.432,7397.7-5742.223Z" transform="translate(-7394.939 5766.442)" fill="#007a6c"/>
      </g>
      <g id="Group_1615" data-name="Group 1615" transform="translate(7404.122 -5758.471)">
        <path id="Path_1534" data-name="Path 1534" d="M7557.075-5706.585h-94.522a1.034,1.034,0,0,1-1.035-1.034,1.034,1.034,0,0,1,1.035-1.034h94.522a1.034,1.034,0,0,1,1.034,1.034A1.034,1.034,0,0,1,7557.075-5706.585Z" transform="translate(-7461.518 5708.654)"/>
      </g>
      <g id="Group_1616" data-name="Group 1616" transform="translate(7406.004 -5752.999)">
        <path id="Path_1535" data-name="Path 1535" d="M7570.721-5666.909H7476.2a1.034,1.034,0,0,1-1.035-1.035,1.034,1.034,0,0,1,1.035-1.034h94.522a1.034,1.034,0,0,1,1.035,1.034A1.034,1.034,0,0,1,7570.721-5666.909Z" transform="translate(-7475.164 5668.978)"/>
      </g>
      <g id="Group_1617" data-name="Group 1617" transform="translate(7404.122 -5747.525)">
        <path id="Path_1536" data-name="Path 1536" d="M7557.075-5627.231h-94.522a1.035,1.035,0,0,1-1.035-1.035,1.035,1.035,0,0,1,1.035-1.035h94.522a1.034,1.034,0,0,1,1.034,1.035A1.034,1.034,0,0,1,7557.075-5627.231Z" transform="translate(-7461.518 5629.301)"/>
      </g>
      <g id="Group_1618" data-name="Group 1618" transform="translate(7404.122 -5705.083)">
        <path id="Path_1537" data-name="Path 1537" d="M7534.283-5319.516h-71.73a1.035,1.035,0,0,1-1.035-1.035,1.035,1.035,0,0,1,1.035-1.034h71.73a1.035,1.035,0,0,1,1.035,1.034A1.035,1.035,0,0,1,7534.283-5319.516Z" transform="translate(-7461.518 5321.585)"/>
      </g>
      <g id="Group_1619" data-name="Group 1619" transform="translate(7405.373 -5699.61)">
        <path id="Path_1538" data-name="Path 1538" d="M7542.1-5279.84h-70.479a1.035,1.035,0,0,1-1.035-1.035,1.035,1.035,0,0,1,1.035-1.034H7542.1a1.035,1.035,0,0,1,1.035,1.034A1.035,1.035,0,0,1,7542.1-5279.84Z" transform="translate(-7470.591 5281.909)"/>
      </g>
      <g id="Group_1620" data-name="Group 1620" transform="translate(7404.122 -5694.138)">
        <path id="Path_1539" data-name="Path 1539" d="M7557.866-5240.163h-95.313a1.035,1.035,0,0,1-1.035-1.035,1.035,1.035,0,0,1,1.035-1.035h95.313a1.035,1.035,0,0,1,1.034,1.035A1.035,1.035,0,0,1,7557.866-5240.163Z" transform="translate(-7461.518 5242.233)"/>
      </g>
      <g id="Group_1623" data-name="Group 1623" transform="translate(7483.135 -5718.039)">
        <g id="Group_1621" data-name="Group 1621" transform="translate(1.411 0)">
          <path id="Path_1540" data-name="Path 1540" d="M8044.6-5408.266v19.433l5.613-4.859,5.613,4.859v-19.433Z" transform="translate(-8044.601 5408.266)"/>
        </g>
        <g id="Group_1622" data-name="Group 1622" transform="translate(0 0)">
          <path id="Path_1541" data-name="Path 1541" d="M8045.6-5408.266v16.591l-3.139-2.717a1.638,1.638,0,0,0-1.064-.365,1.637,1.637,0,0,0-1.063.366l-3.139,2.716v-16.591h-2.821v19.434a1.124,1.124,0,0,0,.916,1,1.811,1.811,0,0,0,.494.068,1.643,1.643,0,0,0,1.064-.365l4.549-3.939,4.551,3.939a1.73,1.73,0,0,0,1.559.3,1.124,1.124,0,0,0,.916-1v-19.434Z" transform="translate(-8034.372 5408.266)"/>
        </g>
      </g>
      <g id="Group_1614" data-name="Group 1614" transform="translate(7405.156 -5734.122)">
        <path id="Path_1533" data-name="Path 1533" d="M7568.865-5515.389H7472.1c-1.7,0-3.086-.9-3.086-2,0,0,1.672-4.71,1.672-6.48,0-1.413-1.672-6.256-1.672-6.256,0-1.1,1.382-2,3.086-2h96.762a3.222,3.222,0,0,1,3.086,2c.948,1.953,2.473,4.611,2.473,6.226a15.173,15.173,0,0,1-2.473,6.51C7571.257-5516.407,7570.569-5515.389,7568.865-5515.389Z" transform="translate(-7469.018 5532.123)" fill="#007a6c"/>
      </g>
    </g>
    <rect id="Rectangle_1064" data-name="Rectangle 1064" width="179" height="179" transform="translate(58 36)" fill="none"/>
  </g>
</svg>
