<svg xmlns="http://www.w3.org/2000/svg" width="179" height="179" viewBox="0 0 179 179">
  <g id="Group_1780" data-name="Group 1780" transform="translate(-59 -37)">
    <g id="Group_1610" data-name="Group 1610" transform="translate(-5964.394 5563.396)">
      <g id="Group_1597" data-name="Group 1597" transform="translate(6054.394 -5492.657)">
        <path id="Path_1516" data-name="Path 1516" d="M6172.218-5435.567H6054.394v-51.28a5.817,5.817,0,0,1,5.812-5.81h106.2a5.816,5.816,0,0,1,5.81,5.81Zm-114.437-3.386h111.049v-47.894a2.426,2.426,0,0,0-2.422-2.424h-106.2a2.427,2.427,0,0,0-2.424,2.424Z" transform="translate(-6054.394 5492.657)" fill="#007a6c"/>
      </g>
      <g id="Group_1598" data-name="Group 1598" transform="translate(6054.394 -5439.194)">
        <path id="Path_1517" data-name="Path 1517" d="M6166.408-5108.487h-106.2a5.818,5.818,0,0,1-5.812-5.81v-62.655h117.824v62.655A5.816,5.816,0,0,1,6166.408-5108.487Zm-108.627-65.078v59.268a2.426,2.426,0,0,0,2.424,2.423h106.2a2.426,2.426,0,0,0,2.422-2.423v-59.268Z" transform="translate(-6054.394 5176.952)" fill="#007a6c"/>
      </g>
      <g id="Group_1599" data-name="Group 1599" transform="translate(6068.863 -5425.47)">
        <path id="Path_1518" data-name="Path 1518" d="M6191.523-5093.371h-50.416a1.271,1.271,0,0,1-1.271-1.27,1.27,1.27,0,0,1,1.271-1.271h50.416a1.27,1.27,0,0,1,1.271,1.271A1.271,1.271,0,0,1,6191.523-5093.371Z" transform="translate(-6139.837 5095.911)"/>
      </g>
      <g id="Group_1600" data-name="Group 1600" transform="translate(6068.863 -5415.576)">
        <path id="Path_1519" data-name="Path 1519" d="M6191.523-5034.949h-50.416a1.27,1.27,0,0,1-1.271-1.27,1.27,1.27,0,0,1,1.271-1.27h50.416a1.27,1.27,0,0,1,1.271,1.27A1.27,1.27,0,0,1,6191.523-5034.949Z" transform="translate(-6139.837 5037.489)"/>
      </g>
      <g id="Group_1601" data-name="Group 1601" transform="translate(6068.863 -5405.683)">
        <path id="Path_1520" data-name="Path 1520" d="M6191.523-4976.528h-50.416a1.27,1.27,0,0,1-1.271-1.27,1.27,1.27,0,0,1,1.271-1.27h50.416a1.27,1.27,0,0,1,1.271,1.27A1.27,1.27,0,0,1,6191.523-4976.528Z" transform="translate(-6139.837 4979.068)"/>
      </g>
      <g id="Group_1602" data-name="Group 1602" transform="translate(6068.863 -5395.789)">
        <path id="Path_1521" data-name="Path 1521" d="M6227.519-4918.106h-86.412a1.27,1.27,0,0,1-1.271-1.27,1.271,1.271,0,0,1,1.271-1.271h86.412a1.271,1.271,0,0,1,1.27,1.271A1.27,1.27,0,0,1,6227.519-4918.106Z" transform="translate(-6139.837 4920.646)"/>
      </g>
      <g id="Group_1603" data-name="Group 1603" transform="translate(6068.863 -5385.896)">
        <path id="Path_1522" data-name="Path 1522" d="M6227.519-4859.684h-86.412a1.27,1.27,0,0,1-1.271-1.27,1.27,1.27,0,0,1,1.271-1.27h86.412a1.27,1.27,0,0,1,1.27,1.27A1.27,1.27,0,0,1,6227.519-4859.684Z" transform="translate(-6139.837 4862.224)"/>
      </g>
      <g id="Group_1604" data-name="Group 1604" transform="translate(6114.629 -5478.942)">
        <path id="Path_1523" data-name="Path 1523" d="M6450.753-5409.128h-39.4a1.271,1.271,0,0,1-1.271-1.271,1.27,1.27,0,0,1,1.271-1.27h39.4a1.269,1.269,0,0,1,1.27,1.27A1.27,1.27,0,0,1,6450.753-5409.128Z" transform="translate(-6410.083 5411.668)"/>
      </g>
      <g id="Group_1605" data-name="Group 1605" transform="translate(6114.629 -5470.146)">
        <path id="Path_1524" data-name="Path 1524" d="M6450.753-5357.189h-39.4a1.27,1.27,0,0,1-1.271-1.27,1.27,1.27,0,0,1,1.271-1.27h39.4a1.27,1.27,0,0,1,1.27,1.27A1.27,1.27,0,0,1,6450.753-5357.189Z" transform="translate(-6410.083 5359.729)"/>
      </g>
      <g id="Group_1606" data-name="Group 1606" transform="translate(6114.629 -5461.351)">
        <path id="Path_1525" data-name="Path 1525" d="M6450.753-5305.25h-39.4a1.27,1.27,0,0,1-1.271-1.27,1.27,1.27,0,0,1,1.271-1.27h39.4a1.27,1.27,0,0,1,1.27,1.27A1.27,1.27,0,0,1,6450.753-5305.25Z" transform="translate(-6410.083 5307.79)"/>
      </g>
      <g id="Group_1607" data-name="Group 1607" transform="translate(6114.629 -5452.555)">
        <path id="Path_1526" data-name="Path 1526" d="M6450.753-5253.311h-39.4a1.27,1.27,0,0,1-1.271-1.27,1.27,1.27,0,0,1,1.271-1.27h39.4a1.27,1.27,0,0,1,1.27,1.27A1.27,1.27,0,0,1,6450.753-5253.311Z" transform="translate(-6410.083 5255.851)"/>
      </g>
      <g id="Group_1608" data-name="Group 1608" transform="translate(6069.628 -5480.599)">
        <rect id="Rectangle_1019" data-name="Rectangle 1019" width="33.474" height="31.596" rx="3" transform="translate(0.085 0.085)"/>
        <path id="Path_1527" data-name="Path 1527" d="M6175.126-5389.686h-27.9a2.877,2.877,0,0,1-2.874-2.874v-26.018a2.877,2.877,0,0,1,2.874-2.874h27.9a2.877,2.877,0,0,1,2.874,2.874v26.018A2.877,2.877,0,0,1,6175.126-5389.686Zm-27.9-31.6a2.708,2.708,0,0,0-2.7,2.7v26.018a2.707,2.707,0,0,0,2.7,2.7h27.9a2.707,2.707,0,0,0,2.7-2.7v-26.018a2.708,2.708,0,0,0-2.7-2.7Z" transform="translate(-6144.357 5421.451)"/>
      </g>
      <g id="Group_1609" data-name="Group 1609" transform="translate(6133.405 -5426.675)">
        <path id="Path_1528" data-name="Path 1528" d="M6544.1-5079.5h-21.87a1.27,1.27,0,0,1-1.27-1.27v-20.992a1.27,1.27,0,0,1,1.27-1.27h21.87a1.27,1.27,0,0,1,1.271,1.27v20.992A1.27,1.27,0,0,1,6544.1-5079.5Zm-20.6-2.54h19.33v-18.452H6523.5Z" transform="translate(-6520.957 5103.029)"/>
      </g>
    </g>
    <g id="Group_1779" data-name="Group 1779" transform="translate(1 1)">
      <rect id="Rectangle_1064" data-name="Rectangle 1064" width="179" height="179" transform="translate(58 36)" fill="none"/>
    </g>
  </g>
</svg>
