<svg xmlns="http://www.w3.org/2000/svg" width="179" height="179" viewBox="0 0 179 179">
  <g id="Group_1771" data-name="Group 1771" transform="translate(-60 -37)">
    <g id="Group_1434" data-name="Group 1434" transform="translate(-6945.068 -3416.361)">
      <g id="Group_1431" data-name="Group 1431" transform="translate(7090.824 3477.362)">
        <g id="Group_1422" data-name="Group 1422" transform="translate(4.094 16.222)">
          <path id="Path_1378" data-name="Path 1378" d="M7502.724,3680.078a7.366,7.366,0,0,1-2.753-.536l-15.11-6.076a7.378,7.378,0,0,1-4.092-9.6l27.256-67.78a1.376,1.376,0,0,1,2.554,1.027l-27.256,67.78a4.622,4.622,0,0,0,2.565,6.015l15.109,6.076a4.624,4.624,0,0,0,6.015-2.565l27.255-67.78a1.376,1.376,0,0,1,2.554,1.027l-27.256,67.78a7.392,7.392,0,0,1-6.842,4.628Z" transform="translate(-7480.233 -3595.227)" fill="#136858"/>
        </g>
        <g id="Group_1423" data-name="Group 1423" transform="translate(4.931 92.127)">
          <path id="Path_1379" data-name="Path 1379" d="M7494.969,4167.445a8.662,8.662,0,0,1-8.025-11.894l3.193-7.94a1.376,1.376,0,1,1,2.554,1.027l-3.193,7.94a5.909,5.909,0,1,0,10.965,4.409l3.193-7.94a1.377,1.377,0,0,1,2.555,1.026l-3.193,7.941A8.679,8.679,0,0,1,7494.969,4167.445Z" transform="translate(-7486.313 -4146.748)" fill="#136858"/>
        </g>
        <g id="Group_1424" data-name="Group 1424" transform="translate(0 110.073)">
          <path id="Path_1380" data-name="Path 1380" d="M7451.86,4300.272a1.377,1.377,0,0,1-1.276-1.89l8.192-20.374a1.377,1.377,0,0,1,2.554,1.027l-8.193,20.373A1.377,1.377,0,0,1,7451.86,4300.272Z" transform="translate(-7450.484 -4277.146)" fill="#136858"/>
        </g>
        <g id="Group_1425" data-name="Group 1425" transform="translate(24.993 13.49)">
          <path id="Path_1381" data-name="Path 1381" d="M7673.287,3594.146a1.371,1.371,0,0,1-.513-.1l-39.832-16.017a1.376,1.376,0,1,1,1.027-2.554l39.832,16.017a1.376,1.376,0,0,1-.514,2.653Z" transform="translate(-7632.079 -3575.376)" fill="#136858"/>
        </g>
        <g id="Group_1426" data-name="Group 1426" transform="translate(25.231 79.867)" opacity="0.5">
          <path id="Path_1382" data-name="Path 1382" d="M7645.172,4063.449a.755.755,0,0,1-.282-.055l-10.6-4.264a.757.757,0,1,1,.564-1.4l10.6,4.264a.757.757,0,0,1-.283,1.459Z" transform="translate(-7633.812 -4057.672)"/>
        </g>
        <g id="Group_1427" data-name="Group 1427" transform="translate(29.591 69.024)" opacity="0.5">
          <path id="Path_1383" data-name="Path 1383" d="M7676.853,3984.664a.761.761,0,0,1-.282-.055l-10.6-4.264a.757.757,0,0,1,.565-1.4l10.6,4.264a.757.757,0,0,1-.283,1.459Z" transform="translate(-7665.493 -3978.886)"/>
        </g>
        <g id="Group_1428" data-name="Group 1428" transform="translate(33.951 58.181)" opacity="0.5">
          <path id="Path_1384" data-name="Path 1384" d="M7708.533,3905.88a.759.759,0,0,1-.282-.055l-10.6-4.264a.757.757,0,1,1,.565-1.4l10.6,4.264a.757.757,0,0,1-.282,1.459Z" transform="translate(-7697.173 -3900.103)"/>
        </g>
        <g id="Group_1429" data-name="Group 1429" transform="translate(39.83 0)">
          <path id="Path_1385" data-name="Path 1385" d="M7764.889,3489.615a1.379,1.379,0,0,1-.514-.1l-23.625-9.5a1.376,1.376,0,1,1,1.026-2.554l23.626,9.5a1.377,1.377,0,0,1-.514,2.654Z" transform="translate(-7739.887 -3477.362)" fill="#136858"/>
        </g>
        <g id="Group_1430" data-name="Group 1430" transform="translate(38.225 2.062)">
          <path id="Path_1386" data-name="Path 1386" d="M7742.965,3517.223a1.375,1.375,0,0,1-.513-.1l-13.368-5.376a1.376,1.376,0,0,1-.764-1.79l6.735-16.748a1.376,1.376,0,0,1,1.79-.764l13.368,5.376a1.376,1.376,0,0,1,.763,1.791l-6.734,16.748A1.376,1.376,0,0,1,7742.965,3517.223Zm-11.577-7.516,10.814,4.349,5.707-14.194-10.813-4.349Z" transform="translate(-7728.221 -3492.347)" fill="#136858"/>
        </g>
      </g>
      <g id="Group_1432" data-name="Group 1432" transform="translate(7047.874 3531.756)" opacity="0.5">
        <path id="Path_1387" data-name="Path 1387" d="M7155.63,3918.2a17.241,17.241,0,0,1-17.222-17.222c0-3.917,2.749-9.832,8.171-17.579,3.957-5.654,7.971-10.293,8.011-10.339a1.376,1.376,0,0,1,2.079,0c.04.046,4.054,4.685,8.011,10.339,5.422,7.747,8.171,13.662,8.171,17.579A17.241,17.241,0,0,1,7155.63,3918.2Zm0-42.113c-4.838,5.8-14.469,18.627-14.469,24.891a14.469,14.469,0,1,0,28.939,0C7170.1,3894.715,7160.469,3881.884,7155.63,3876.088Z" transform="translate(-7138.409 -3872.587)"/>
      </g>
    </g>
    <rect id="Rectangle_1064" data-name="Rectangle 1064" width="179" height="179" transform="translate(60 37)" fill="none"/>
  </g>
</svg>
