<svg xmlns="http://www.w3.org/2000/svg" width="179" height="179" viewBox="0 0 179 179">
  <g id="Group_1775" data-name="Group 1775" transform="translate(-60 -37)">
    <g id="Group_1580" data-name="Group 1580" transform="translate(-3655.675 5678.796)">
      <g id="Group_1559" data-name="Group 1559" transform="translate(3739.23 -5604.063)">
        <path id="Path_1481" data-name="Path 1481" d="M3856.794-5389.666H3751.445a12.229,12.229,0,0,1-12.215-12.215v-63.082a12.229,12.229,0,0,1,12.215-12.215h48.97a1.472,1.472,0,0,1,1.473,1.473,1.472,1.472,0,0,1-1.473,1.473h-48.97a9.28,9.28,0,0,0-9.27,9.27v63.082a9.28,9.28,0,0,0,9.27,9.27h105.349a9.28,9.28,0,0,0,9.27-9.27v-54.735a1.473,1.473,0,0,1,1.473-1.473,1.473,1.473,0,0,1,1.473,1.473v54.735A12.229,12.229,0,0,1,3856.794-5389.666Z" transform="translate(-3739.23 5477.178)" fill="#007a6c"/>
      </g>
      <g id="Group_1560" data-name="Group 1560" transform="translate(3770.169 -5505.243)">
        <path id="Path_1482" data-name="Path 1482" d="M4011.682-4790.916h-56.838a5.538,5.538,0,0,1-5.532-5.532v-4.191a5.538,5.538,0,0,1,5.532-5.532h56.838a5.539,5.539,0,0,1,5.532,5.532v4.191A5.538,5.538,0,0,1,4011.682-4790.916Zm-56.838-12.309a2.589,2.589,0,0,0-2.586,2.586v4.191a2.59,2.59,0,0,0,2.586,2.587h56.838a2.59,2.59,0,0,0,2.586-2.587v-4.191a2.589,2.589,0,0,0-2.586-2.586Z" transform="translate(-3949.312 4806.17)" fill="#007a6c"/>
      </g>
      <g id="Group_1561" data-name="Group 1561" transform="translate(3790.485 -5519.495)">
        <path id="Path_1483" data-name="Path 1483" d="M4114.533-4885.749h-27.269v-17.2h27.269Zm-24.324-2.945h21.379V-4900h-21.379Z" transform="translate(-4087.264 4902.947)" fill="#007a6c"/>
      </g>
      <g id="Group_1564" data-name="Group 1564" transform="translate(3808.611 -5625.976)">
        <g id="Group_1562" data-name="Group 1562" transform="translate(0 0)">
          <path id="Path_1484" data-name="Path 1484" d="M4244.093-5570h-11.521a1.1,1.1,0,0,1-1.1-1.1v-4.269a23.287,23.287,0,0,1-4.256-1.785l-3.034,3.034a1.1,1.1,0,0,1-1.562,0l-8.146-8.146a1.1,1.1,0,0,1-.324-.781,1.1,1.1,0,0,1,.324-.781l3.112-3.112a23.273,23.273,0,0,1-1.686-4.178h-4.446a1.1,1.1,0,0,1-1.1-1.1v-11.52a1.1,1.1,0,0,1,1.1-1.1h4.6a23.273,23.273,0,0,1,1.706-4l-3.289-3.289a1.1,1.1,0,0,1-.324-.781,1.1,1.1,0,0,1,.324-.781l8.146-8.146a1.1,1.1,0,0,1,1.562,0l3.367,3.367a23.277,23.277,0,0,1,3.923-1.607v-4.779a1.1,1.1,0,0,1,1.1-1.1h11.521a1.1,1.1,0,0,1,1.1,1.1v4.779a23.288,23.288,0,0,1,3.923,1.607l3.367-3.367a1.105,1.105,0,0,1,.781-.324,1.105,1.105,0,0,1,.781.324l8.146,8.146a1.1,1.1,0,0,1,.323.781,1.1,1.1,0,0,1-.323.781l-3.289,3.289a23.309,23.309,0,0,1,1.705,4h4.6a1.1,1.1,0,0,1,1.1,1.1v11.52a1.1,1.1,0,0,1-1.1,1.1h-4.446a23.327,23.327,0,0,1-1.685,4.178l3.111,3.112a1.1,1.1,0,0,1,0,1.562l-8.146,8.146a1.1,1.1,0,0,1-1.562,0l-3.034-3.034a23.316,23.316,0,0,1-4.256,1.785v4.269A1.1,1.1,0,0,1,4244.093-5570Zm-10.416-2.209h9.312v-4a1.1,1.1,0,0,1,.819-1.067,21.035,21.035,0,0,0,5.271-2.211,1.1,1.1,0,0,1,1.343.17l2.846,2.847,6.584-6.584-2.915-2.915a1.106,1.106,0,0,1-.179-1.327,21.024,21.024,0,0,0,2.1-5.207,1.105,1.105,0,0,1,1.071-.833h4.184v-9.311h-4.321a1.105,1.105,0,0,1-1.064-.807,21.028,21.028,0,0,0-2.146-5.029,1.106,1.106,0,0,1,.17-1.343l3.1-3.1-6.584-6.584-3.169,3.169a1.105,1.105,0,0,1-1.327.18,21.05,21.05,0,0,0-4.964-2.034,1.1,1.1,0,0,1-.819-1.067v-4.507h-9.312v4.507a1.1,1.1,0,0,1-.819,1.067,21.05,21.05,0,0,0-4.964,2.034,1.106,1.106,0,0,1-1.327-.18l-3.169-3.169-6.584,6.584,3.1,3.1a1.1,1.1,0,0,1,.17,1.343,21.052,21.052,0,0,0-2.146,5.028,1.105,1.105,0,0,1-1.064.807h-4.321v9.311h4.185a1.1,1.1,0,0,1,1.07.833,21.041,21.041,0,0,0,2.1,5.207,1.1,1.1,0,0,1-.18,1.327l-2.914,2.915,6.584,6.584,2.846-2.847a1.1,1.1,0,0,1,1.342-.17,21.05,21.05,0,0,0,5.271,2.211,1.1,1.1,0,0,1,.819,1.067Z" transform="translate(-4210.346 5625.976)"/>
        </g>
        <g id="Group_1563" data-name="Group 1563" transform="translate(11.776 11.775)">
          <path id="Path_1485" data-name="Path 1485" d="M4306.516-5513.6a16.229,16.229,0,0,1-16.211-16.211,16.229,16.229,0,0,1,16.211-16.211,16.229,16.229,0,0,1,16.211,16.211A16.229,16.229,0,0,1,4306.516-5513.6Zm0-30.213a14.018,14.018,0,0,0-14,14,14.018,14.018,0,0,0,14,14,14.018,14.018,0,0,0,14-14A14.018,14.018,0,0,0,4306.516-5543.809Z" transform="translate(-4290.305 5546.018)"/>
        </g>
      </g>
      <g id="Group_1565" data-name="Group 1565" transform="translate(3751.772 -5592.707)">
        <path id="Path_1486" data-name="Path 1486" d="M3825.5-5392.463a1.1,1.1,0,0,1-.823-.367,1.1,1.1,0,0,1,.084-1.56l6.019-5.4a1.1,1.1,0,0,1,1.56.084,1.1,1.1,0,0,1-.084,1.56l-6.019,5.4A1.1,1.1,0,0,1,3825.5-5392.463Z" transform="translate(-3824.391 5400.075)"/>
      </g>
      <g id="Group_1566" data-name="Group 1566" transform="translate(3751.772 -5587.306)">
        <path id="Path_1487" data-name="Path 1487" d="M3831.514-5355.784a1.1,1.1,0,0,1-.737-.282l-6.019-5.4a1.105,1.105,0,0,1-.084-1.56,1.105,1.105,0,0,1,1.56-.084l6.019,5.4a1.1,1.1,0,0,1,.084,1.56A1.1,1.1,0,0,1,3831.514-5355.784Z" transform="translate(-3824.391 5363.395)"/>
      </g>
      <g id="Group_1567" data-name="Group 1567" transform="translate(3775.251 -5587.306)">
        <path id="Path_1488" data-name="Path 1488" d="M3984.925-5355.784a1.1,1.1,0,0,1-.823-.367,1.1,1.1,0,0,1,.084-1.56l6.019-5.4a1.1,1.1,0,0,1,1.56.085,1.1,1.1,0,0,1-.084,1.56l-6.019,5.4A1.106,1.106,0,0,1,3984.925-5355.784Z" transform="translate(-3983.82 5363.396)"/>
      </g>
      <g id="Group_1568" data-name="Group 1568" transform="translate(3775.251 -5592.707)">
        <path id="Path_1489" data-name="Path 1489" d="M3990.943-5392.463a1.1,1.1,0,0,1-.737-.283l-6.019-5.4a1.1,1.1,0,0,1-.084-1.56,1.1,1.1,0,0,1,1.56-.084l6.019,5.4a1.1,1.1,0,0,1,.084,1.56A1.1,1.1,0,0,1,3990.943-5392.463Z" transform="translate(-3983.82 5400.074)"/>
      </g>
      <g id="Group_1569" data-name="Group 1569" transform="translate(3762.495 -5592.911)">
        <path id="Path_1490" data-name="Path 1490" d="M3898.309-5387.928a1.1,1.1,0,0,1-.62-.191,1.1,1.1,0,0,1-.292-1.535l7.7-11.315a1.1,1.1,0,0,1,1.535-.292,1.1,1.1,0,0,1,.292,1.534l-7.7,11.315A1.1,1.1,0,0,1,3898.309-5387.928Z" transform="translate(-3897.206 5401.452)"/>
      </g>
      <g id="Group_1570" data-name="Group 1570" transform="translate(3825.643 -5541.008)">
        <path id="Path_1491" data-name="Path 1491" d="M4327.1-5041.409a1.1,1.1,0,0,1-.823-.367,1.1,1.1,0,0,1,.084-1.56l6.019-5.4a1.1,1.1,0,0,1,1.56.084,1.105,1.105,0,0,1-.084,1.56l-6.02,5.4A1.1,1.1,0,0,1,4327.1-5041.409Z" transform="translate(-4325.996 5049.02)"/>
      </g>
      <g id="Group_1571" data-name="Group 1571" transform="translate(3825.643 -5535.606)">
        <path id="Path_1492" data-name="Path 1492" d="M4333.119-5004.73a1.1,1.1,0,0,1-.737-.282l-6.019-5.4a1.1,1.1,0,0,1-.084-1.56,1.1,1.1,0,0,1,1.56-.084l6.02,5.4a1.1,1.1,0,0,1,.084,1.56A1.1,1.1,0,0,1,4333.119-5004.73Z" transform="translate(-4325.996 5012.341)"/>
      </g>
      <g id="Group_1572" data-name="Group 1572" transform="translate(3849.123 -5535.606)">
        <path id="Path_1493" data-name="Path 1493" d="M4486.532-5004.73a1.1,1.1,0,0,1-.823-.367,1.1,1.1,0,0,1,.084-1.56l6.019-5.4a1.1,1.1,0,0,1,1.56.084,1.1,1.1,0,0,1-.084,1.56l-6.02,5.4A1.1,1.1,0,0,1,4486.532-5004.73Z" transform="translate(-4485.427 5012.341)"/>
      </g>
      <g id="Group_1573" data-name="Group 1573" transform="translate(3849.123 -5541.008)">
        <path id="Path_1494" data-name="Path 1494" d="M4492.55-5041.409a1.1,1.1,0,0,1-.737-.282l-6.019-5.4a1.1,1.1,0,0,1-.084-1.56,1.1,1.1,0,0,1,1.56-.084l6.02,5.4a1.105,1.105,0,0,1,.084,1.56A1.1,1.1,0,0,1,4492.55-5041.409Z" transform="translate(-4485.427 5049.021)"/>
      </g>
      <g id="Group_1574" data-name="Group 1574" transform="translate(3836.366 -5541.21)">
        <path id="Path_1495" data-name="Path 1495" d="M4399.915-5036.874a1.1,1.1,0,0,1-.62-.191,1.1,1.1,0,0,1-.292-1.534l7.7-11.315a1.105,1.105,0,0,1,1.535-.292,1.1,1.1,0,0,1,.292,1.534l-7.7,11.315A1.1,1.1,0,0,1,4399.915-5036.874Z" transform="translate(-4398.812 5050.397)"/>
      </g>
      <g id="Group_1575" data-name="Group 1575" transform="translate(3749.555 -5572.212)">
        <path id="Path_1496" data-name="Path 1496" d="M3869.5-5258.7h-59.056a1.1,1.1,0,0,1-1.1-1.1,1.1,1.1,0,0,1,1.1-1.1H3869.5a1.1,1.1,0,0,1,1.1,1.1A1.1,1.1,0,0,1,3869.5-5258.7Z" transform="translate(-3809.342 5260.904)"/>
      </g>
      <g id="Group_1576" data-name="Group 1576" transform="translate(3749.555 -5561.808)">
        <path id="Path_1497" data-name="Path 1497" d="M3916.345-5188.053h-105.9a1.1,1.1,0,0,1-1.1-1.1,1.1,1.1,0,0,1,1.1-1.1h105.9a1.1,1.1,0,0,1,1.1,1.1A1.1,1.1,0,0,1,3916.345-5188.053Z" transform="translate(-3809.342 5190.262)"/>
      </g>
      <g id="Group_1577" data-name="Group 1577" transform="translate(3749.555 -5551.405)">
        <path id="Path_1498" data-name="Path 1498" d="M3916.345-5117.41h-105.9a1.1,1.1,0,0,1-1.1-1.1,1.105,1.105,0,0,1,1.1-1.1h105.9a1.105,1.105,0,0,1,1.1,1.1A1.1,1.1,0,0,1,3916.345-5117.41Z" transform="translate(-3809.342 5119.619)"/>
      </g>
      <g id="Group_1578" data-name="Group 1578" transform="translate(3749.555 -5541.001)">
        <path id="Path_1499" data-name="Path 1499" d="M3876.068-5046.767h-65.622a1.1,1.1,0,0,1-1.1-1.1,1.1,1.1,0,0,1,1.1-1.1h65.622a1.1,1.1,0,0,1,1.1,1.1A1.1,1.1,0,0,1,3876.068-5046.767Z" transform="translate(-3809.342 5048.976)"/>
      </g>
      <g id="Group_1579" data-name="Group 1579" transform="translate(3749.555 -5530.598)">
        <path id="Path_1500" data-name="Path 1500" d="M3876.068-4976.124h-65.622a1.1,1.1,0,0,1-1.1-1.1,1.105,1.105,0,0,1,1.1-1.1h65.622a1.1,1.1,0,0,1,1.1,1.1A1.1,1.1,0,0,1,3876.068-4976.124Z" transform="translate(-3809.342 4978.333)"/>
      </g>
    </g>
    <rect id="Rectangle_1064" data-name="Rectangle 1064" width="179" height="179" transform="translate(60 37)" fill="none"/>
  </g>
</svg>
